<?xml version="1.0" standalone="no"?>
<!DOCTYPE svg PUBLIC "-//W3C//DTD SVG 20010904//EN"
 "http://www.w3.org/TR/2001/REC-SVG-20010904/DTD/svg10.dtd">
<svg version="1.0" xmlns="http://www.w3.org/2000/svg"
 width="1080.000000pt" height="1080.000000pt" viewBox="0 0 1080.000000 1080.000000"
 preserveAspectRatio="xMidYMid meet">

<g transform="translate(0.000000,1080.000000) scale(0.100000,-0.100000)"
fill="#000000" stroke="none">
<path d="M1070 8655 c0 -1180 -1 -2148 -2 -2152 -2 -5 25 -9 60 -11 l62 -3 0
61 0 60 75 0 c49 0 75 -4 75 -11 0 -7 -18 -77 -41 -156 -22 -80 -53 -195 -68
-256 l-27 -112 -135 -22 c-74 -12 -215 -34 -314 -47 -99 -14 -250 -37 -335
-50 -85 -14 -213 -34 -285 -44 -97 -14 -131 -22 -133 -33 -3 -18 50 -14 278
21 74 11 214 31 310 45 180 26 550 83 585 90 20 4 20 -2 22 -395 1 -330 -1
-400 -12 -400 -7 0 -127 22 -265 50 -274 54 -326 58 -552 40 -128 -11 -356
-44 -366 -54 -15 -16 15 -16 119 -1 63 8 209 20 325 26 l211 10 219 -45 c120
-24 262 -52 314 -60 103 -17 506 -97 583 -116 26 -7 47 -15 47 -19 0 -3 -87
-7 -193 -7 -253 -2 -455 -23 -877 -90 -509 -81 -572 -95 -619 -146 -29 -31
-31 -32 -80 -22 l-51 11 0 -1041 0 -1041 95 -48 95 -47 75 25 c41 14 152 43
247 65 95 22 220 51 278 65 356 84 982 225 1020 231 102 14 165 35 186 60 l21
26 54 -35 c30 -18 106 -62 169 -97 134 -73 147 -83 300 -210 174 -144 197
-162 300 -230 109 -71 244 -141 480 -247 91 -41 203 -95 250 -121 154 -85 164
-86 311 -37 57 20 208 65 334 101 288 82 718 212 853 259 56 19 108 35 115 35
8 0 30 -44 52 -102 68 -184 193 -416 263 -490 19 -21 22 -29 11 -33 -8 -2
-169 -43 -359 -89 -190 -46 -478 -120 -640 -164 -389 -106 -787 -211 -985
-261 -88 -22 -231 -61 -318 -85 -88 -25 -218 -59 -290 -77 -73 -17 -229 -58
-347 -89 -200 -54 -312 -80 -402 -95 -35 -5 -38 -4 -55 30 -15 31 -31 42 -93
69 -83 36 -264 136 -257 142 2 2 47 -9 99 -25 175 -54 203 -57 290 -27 41 14
138 54 214 89 170 78 241 105 409 156 347 104 584 200 586 238 5 58 -5 180
-15 192 -6 8 -41 34 -78 58 -36 23 -104 71 -150 106 -83 62 -387 224 -502 267
-49 19 -70 21 -135 16 l-76 -7 -28 36 c-15 19 -33 35 -40 35 -32 1 -129 51
-192 100 -79 60 -221 131 -310 155 -109 28 -108 28 -515 -85 -96 -26 -222 -61
-280 -76 -171 -44 -255 -80 -292 -124 -30 -34 -114 -93 -232 -162 l-46 -28 0
-66 0 -66 -37 29 c-48 38 -419 283 -427 283 -3 0 -6 -7 -6 -15 0 -8 82 -70
182 -137 101 -67 207 -139 236 -160 l52 -39 0 -70 c0 -39 4 -78 10 -88 5 -10
31 -32 58 -50 69 -44 489 -233 753 -339 267 -107 308 -127 454 -222 61 -39
165 -99 231 -132 l121 -59 7 -61 c3 -34 6 -132 6 -219 l0 -158 -77 39 c-43 22
-166 82 -273 134 -399 193 -801 418 -1070 598 -177 119 -485 345 -632 463
l-58 47 0 -956 0 -956 2086 0 2086 0 -9 42 c-15 80 -9 200 12 237 11 18 26 44
33 57 7 13 19 24 27 24 8 0 12 6 9 14 -3 7 2 16 11 20 9 3 23 22 31 41 8 19
19 35 26 35 6 0 9 3 5 6 -3 4 -1 12 6 20 30 33 37 44 31 44 -4 0 1 9 11 20 19
21 41 28 29 8 -4 -7 -3 -8 5 -4 9 6 9 11 1 21 -13 16 3 30 22 19 7 -4 8 -3 4
4 -4 7 -1 12 8 12 9 0 16 4 16 9 0 20 177 78 205 68 8 -4 15 -2 15 3 0 15 41
12 89 -5 48 -17 329 -27 338 -12 3 5 42 7 87 4 52 -4 67 -3 41 2 l-40 8 41 2
c23 0 69 4 104 8 47 4 61 3 56 -5 -9 -15 32 -16 54 -2 13 8 12 10 -4 10 -11 0
-16 3 -13 7 4 3 19 0 34 -8 20 -11 27 -11 30 -1 3 6 16 12 29 12 14 0 23 -4
20 -8 -2 -4 5 -8 17 -7 12 0 23 -4 25 -9 1 -5 -28 -10 -65 -11 -38 -2 -81 -10
-97 -18 -27 -15 -27 -16 -8 -26 12 -6 45 -10 74 -10 29 1 41 4 26 6 -43 7 -33
23 15 23 64 1 99 36 59 59 -15 9 -15 10 6 11 14 0 22 -6 22 -16 0 -11 5 -14
18 -9 20 8 21 8 45 6 24 -2 21 -19 -5 -23 -28 -4 -32 -19 -13 -43 15 -20 15
-19 40 8 14 16 25 22 25 15 0 -8 -5 -19 -12 -26 -9 -9 -9 -12 0 -12 7 0 12 6
12 13 0 8 4 7 11 -3 8 -12 9 -9 4 10 l-6 25 15 -25 c9 -14 15 -19 16 -13 0 13
58 48 66 40 2 -2 -21 -29 -51 -59 -73 -73 -73 -92 2 -164 31 -30 63 -54 69
-54 7 0 19 -8 26 -17 7 -10 18 -18 23 -18 21 -1 65 -29 66 -42 1 -7 2 -19 3
-25 1 -7 10 -12 20 -10 15 3 18 -1 13 -17 -3 -14 0 -21 9 -21 8 0 14 -4 14
-10 0 -5 5 -10 11 -10 6 0 8 9 4 20 -4 11 -2 20 4 20 6 0 11 -4 11 -9 0 -5 14
-14 31 -21 21 -9 27 -15 17 -21 -7 -4 -9 -11 -5 -16 5 -4 12 -1 18 7 7 11 1
22 -21 42 -37 34 -31 34 43 0 55 -26 56 -27 33 -38 -20 -9 -23 -9 -18 8 2 10
-1 18 -9 18 -7 0 -9 -3 -6 -7 4 -3 2 -12 -4 -19 -8 -10 -4 -15 17 -20 17 -5
29 -3 32 4 2 6 10 8 19 5 11 -4 14 -2 9 5 -5 8 -2 10 9 6 13 -5 13 -9 -5 -24
-24 -21 -26 -53 -5 -70 12 -10 13 -16 4 -26 -8 -10 -8 -14 0 -14 6 0 11 5 11
10 0 6 8 10 18 11 13 0 14 2 2 6 -8 3 -18 11 -22 16 -8 14 2 38 13 31 5 -3 9
0 9 5 0 6 -5 11 -12 11 -8 0 -6 6 5 17 14 14 19 15 29 4 7 -8 9 -11 3 -8 -13
7 -11 -113 2 -139 6 -10 8 -25 6 -32 -4 -9 9 -12 49 -11 29 1 47 4 40 7 -6 2
-12 10 -12 18 0 9 -4 12 -10 9 -5 -3 -10 -2 -10 3 0 20 14 20 31 -1 l18 -22 1
30 c0 23 3 27 10 15 5 -8 10 -25 10 -37 0 -16 6 -23 20 -23 18 0 20 7 20 69
l0 70 57 -35 c31 -19 60 -34 64 -34 4 0 10 -9 14 -19 4 -14 12 -18 23 -14 15
6 14 3 -2 -15 l-19 -22 2111 0 2112 0 0 630 c0 347 -2 630 -4 630 -2 0 -34
-20 -71 -45 -37 -25 -70 -44 -72 -41 -3 2 5 37 16 78 12 40 45 210 73 378 l53
305 3 878 c2 708 0 877 -10 877 -7 0 -35 -7 -63 -16 -74 -22 -316 -84 -1065
-273 -371 -93 -751 -192 -843 -219 -113 -34 -170 -46 -173 -38 -2 6 -10 54
-19 106 -8 52 -24 145 -36 208 -12 62 -20 114 -18 116 18 14 424 123 969 260
360 91 736 187 835 214 151 42 254 66 403 98 21 4 32 34 12 34 -27 0 -256 -55
-435 -104 -110 -30 -479 -124 -820 -209 -341 -86 -698 -178 -794 -206 -96 -28
-176 -49 -178 -47 -3 2 -22 80 -43 172 -21 93 -57 229 -80 303 -22 73 -40 136
-38 141 2 4 55 -12 118 -36 138 -52 188 -55 328 -20 165 42 345 75 560 102
301 38 337 45 337 69 0 16 -45 51 -87 67 -4 2 -12 41 -17 87 -6 46 -18 97 -26
114 -8 17 -13 33 -10 35 5 6 185 -33 505 -108 96 -23 274 -61 395 -85 318 -62
295 -59 295 -38 0 16 -23 22 -157 47 -87 16 -306 62 -488 103 -181 40 -384 85
-450 99 -115 26 -122 28 -160 70 -22 23 -60 55 -85 70 -25 15 -64 44 -88 65
-58 51 -116 64 -282 62 -132 -1 -313 -28 -362 -54 -11 -6 -21 -9 -23 -7 -2 2
5 37 16 78 33 130 136 650 154 780 9 69 21 199 28 290 l12 165 45 -3 c67 -4
591 -47 1065 -86 674 -57 775 -63 775 -47 0 12 -39 17 -250 31 -151 10 -573
45 -1020 86 -96 8 -274 23 -395 32 l-220 17 -7 96 c-4 53 -14 114 -22 134
l-16 38 67 -6 c38 -3 194 -17 348 -31 154 -14 449 -37 655 -51 206 -14 479
-34 605 -45 274 -24 255 -23 255 -7 0 10 -43 16 -172 25 -95 7 -249 19 -343
27 -93 7 -253 19 -355 25 -236 14 -549 37 -665 50 -49 5 -164 16 -255 25
l-165 16 -135 63 c-165 78 -251 105 -444 142 -168 31 -182 44 -23 20 113 -17
211 -24 862 -61 403 -23 1096 -55 1513 -70 155 -6 182 -5 182 7 0 17 -129 28
-312 28 l-98 0 0 472 0 471 205 -7 c198 -6 205 -6 205 13 0 18 -11 19 -157 25
-161 7 -243 13 -249 18 -2 2 -6 557 -10 1234 -6 1101 -5 1232 9 1237 8 3 103
9 211 13 165 6 196 9 196 22 0 19 -39 17 -1040 -38 -190 -11 -437 -24 -550
-30 -113 -6 -402 -22 -643 -35 -242 -14 -443 -25 -449 -25 -5 0 -8 14 -6 32
l3 32 65 3 c136 6 1249 63 1330 68 47 3 150 9 230 15 201 13 800 50 943 57 89
5 117 9 117 19 0 17 6 17 -225 -1 -104 -8 -314 -21 -465 -30 -151 -8 -360 -22
-465 -30 -104 -8 -296 -19 -425 -25 -129 -5 -343 -15 -475 -21 -483 -21 -620
-26 -628 -19 -4 4 -7 34 -5 66 l3 59 95 7 c135 10 697 44 1470 88 436 25 1109
76 1117 84 16 15 -18 16 -193 1 -104 -8 -197 -15 -206 -15 -17 0 -18 16 -18
200 0 127 -4 200 -10 200 -6 0 -10 -73 -10 -200 0 -127 -4 -200 -10 -200 -6 0
-10 36 -10 88 0 136 -12 312 -22 312 -4 0 -8 -92 -8 -205 l0 -205 -28 0 -29 0
-6 122 c-4 66 -7 159 -7 205 0 49 -4 83 -10 83 -6 0 -10 -75 -10 -205 0 -194
-1 -205 -19 -205 -10 0 -33 -3 -50 -6 l-31 -6 0 211 c0 181 -2 211 -15 211
-13 0 -15 -30 -15 -209 l0 -208 -87 -7 c-80 -5 -288 -19 -718 -46 -88 -5 -365
-21 -615 -35 -250 -13 -479 -27 -507 -31 l-53 -5 0 270 c0 234 -2 271 -15 271
-13 0 -15 -226 -17 -1967 -1 -1083 -1 -1989 1 -2015 2 -45 1 -48 -22 -48 -30
0 -37 27 -37 144 0 90 -24 254 -39 269 -5 5 -22 7 -36 3 -25 -6 -26 -10 -20
-39 4 -18 9 -106 12 -196 l4 -163 -38 7 c-21 4 -40 9 -43 12 -3 2 -3 902 -2
1999 4 1820 2 1994 -12 1994 -15 0 -16 -176 -16 -1995 l0 -1995 -28 0 -28 0 4
1995 c4 1839 3 1995 -12 1995 -14 0 -16 -24 -16 -234 l0 -235 -42 -5 c-54 -6
-561 -34 -768 -41 -85 -4 -193 -10 -240 -15 -47 -5 -136 -12 -197 -15 l-113
-7 0 276 c0 177 -4 276 -10 276 -6 0 -10 -100 -10 -280 l0 -280 -30 0 -30 0 0
280 c0 242 -2 280 -15 280 -13 0 -15 -38 -15 -279 0 -267 -1 -279 -19 -284
-11 -3 -22 -2 -25 1 -3 3 -6 131 -6 284 0 179 -4 278 -10 278 -5 0 -10 -10
-11 -22 0 -13 -2 -43 -4 -68 -2 -25 -4 -142 -4 -261 l-1 -215 -252 -13 c-139
-6 -437 -27 -663 -46 -225 -19 -411 -35 -412 -35 -2 0 -3 149 -3 330 0 213 -4
330 -10 330 -6 0 -10 -96 -10 -269 0 -147 -3 -296 -6 -330 -7 -59 -8 -61 -36
-61 l-29 0 1 298 c2 372 2 362 -10 362 -6 0 -10 -113 -10 -318 0 -271 -2 -321
-16 -340 -15 -21 -14 -22 18 -22 63 0 524 30 693 45 94 8 332 24 530 35 198
11 443 27 545 35 177 15 294 21 780 45 118 6 266 14 328 17 l112 6 0 -106 0
-105 -72 -6 c-40 -2 -185 -10 -323 -16 -137 -6 -324 -16 -415 -21 -91 -5 -311
-14 -490 -19 -179 -6 -408 -14 -510 -20 -102 -5 -338 -16 -525 -25 -187 -9
-430 -22 -540 -28 l-200 -12 -1 -1295 -2 -1295 -41 -3 -41 -3 0 1725 c0 1141
-3 1726 -10 1726 -7 0 -11 -587 -12 -1727 l-3 -1728 -30 0 -30 0 4 1728 c3
1592 2 1727 -13 1727 -15 0 -16 -138 -18 -1727 l-3 -1728 -47 -3 -48 -3 0
1730 c0 1147 -3 1731 -10 1731 -6 0 -10 -96 -10 -268 0 -148 -3 -316 -6 -374
l-7 -105 -181 -16 c-100 -10 -343 -31 -541 -47 -198 -16 -407 -34 -465 -40
-58 -5 -116 -10 -131 -10 l-25 0 3 388 c2 213 5 395 7 405 5 21 -18 70 -27 60
-4 -3 -7 -211 -7 -462 0 -370 2 -452 13 -437 8 11 31 19 67 22 30 3 271 23
535 45 264 22 542 45 618 52 76 7 140 11 142 8 3 -2 5 -23 5 -46 l0 -43 -72
-6 c-40 -3 -206 -17 -368 -31 -162 -13 -347 -29 -410 -35 -63 -6 -207 -17
-319 -25 -112 -8 -205 -16 -206 -17 -4 -4 -16 -1931 -14 -2274 1 -185 -2 -304
-8 -307 -6 -4 -45 -9 -89 -13 l-79 -6 1 1703 c1 1711 0 1879 -17 1879 -5 0 -9
-189 -9 -445 l0 -445 -22 -4 c-13 -3 -111 -10 -218 -16 -107 -6 -274 -18 -370
-26 -445 -36 -842 -64 -910 -64 l-55 0 3 500 c3 499 2 500 -18 500 l-21 0 3
-2145 3 -2145 -35 0 -35 0 3 2145 c3 1947 2 2145 -12 2145 -15 0 -16 -200 -16
-2145z m9140 1433 c0 -5 0 -782 0 -1729 l0 -1720 -47 3 -48 3 2 1720 3 1720
22 7 c28 8 69 6 68 -4z m90 -755 c0 -423 3 -1201 7 -1730 l6 -963 -30 0 -30 0
-6 353 c-3 193 -6 967 -7 1718 -2 1323 -2 1367 16 1378 46 26 44 53 44 -756z
m62 -495 c1 -695 2 -1472 2 -1728 1 -435 0 -465 -16 -468 -17 -3 -18 84 -18
1727 0 1532 2 1731 15 1731 13 0 15 -148 17 -1262z m-277 -460 c-4 -942 -9
-1717 -12 -1722 -3 -5 -49 -6 -102 -2 -53 3 -190 11 -306 16 -115 6 -327 17
-470 25 -233 13 -351 22 -755 55 -63 5 -163 12 -222 16 l-108 7 0 410 0 410
98 -7 c167 -11 556 -26 577 -21 11 2 224 4 473 4 398 1 453 3 459 16 3 9 4 18
2 20 -2 2 -335 6 -739 9 -404 3 -766 8 -803 12 l-69 7 7 1171 c4 644 10 1174
13 1177 4 3 117 12 252 18 135 7 443 23 685 36 242 14 526 29 630 35 105 6
213 12 240 13 28 2 74 4 103 5 l53 2 -6 -1712z m-2335 61 l0 -1622 -67 7
c-169 16 -322 26 -486 32 -167 7 -180 9 -192 28 -7 12 -33 59 -57 107 -67 127
-94 166 -169 245 -64 68 -68 75 -59 100 13 33 45 62 77 70 40 10 16 21 -35 16
-58 -5 -71 12 -47 61 19 39 20 37 -17 37 -24 0 -41 -10 -74 -44 -23 -25 -44
-56 -46 -69 -3 -24 -3 -24 -95 25 l-93 50 0 1258 0 1257 133 7 c72 3 245 11
382 16 138 6 304 15 370 20 113 10 180 13 388 18 l87 2 0 -1621z m-1552 331
l-3 -1230 -115 -4 c-90 -3 -141 -11 -235 -36 -66 -18 -142 -35 -168 -37 -45
-5 -52 -2 -84 28 -48 46 -83 122 -83 184 l-1 50 -29 -35 c-28 -33 -29 -39 -30
-133 0 -74 -3 -98 -12 -95 -7 3 -19 15 -25 29 -13 24 -13 23 -13 -10 0 -20 13
-56 31 -88 35 -60 32 -71 -23 -79 -25 -4 -47 0 -79 17 -40 20 -61 23 -251 27
l-206 5 -1 949 -1 950 68 -7 67 -6 -30 18 c-16 9 -38 16 -47 14 -14 -2 -18 5
-18 31 -1 32 -1 32 -17 13 l-16 -20 8 20 c4 11 9 26 12 33 3 6 0 12 -6 12 -8
0 -9 6 -2 19 6 10 8 20 6 23 -4 3 -5 58 -5 208 0 78 -11 273 -16 281 -9 15 -4
17 61 20 33 1 65 6 72 11 15 12 46 14 633 38 424 18 500 22 548 28 10 2 12
-247 10 -1228z m82 -11 l0 -1240 -22 3 -23 3 -3 1238 -2 1237 25 0 25 0 0
-1241z m90 -15 c0 -1141 -1 -1256 -16 -1250 -9 3 -22 6 -30 6 -12 0 -14 178
-14 1250 l0 1250 30 0 30 0 0 -1256z m-1605 1084 c0 -49 -2 -626 -3 -1283 l-2
-1195 -30 0 -30 0 0 1279 c0 1014 3 1280 13 1285 6 2 21 4 32 3 18 -2 20 -9
20 -89z m80 -40 c3 -73 5 -650 3 -1283 l-3 -1150 -28 0 -28 0 0 995 c1 547 1
1124 1 1283 l0 287 24 0 c24 0 24 -1 31 -132z m-507 -76 c13 -919 17 -1310 14
-1799 l-2 -572 -53 -5 c-213 -21 -1184 -95 -1255 -96 l-52 0 6 853 c4 468 10
856 15 861 4 5 3 18 -2 28 -6 11 -8 27 -4 36 3 8 6 181 5 383 0 317 2 368 15
379 9 8 68 16 153 21 75 5 182 13 237 19 55 5 141 12 190 15 50 3 99 8 110 10
11 2 74 7 140 10 66 3 154 10 195 15 107 12 207 12 215 0 4 -7 13 -5 27 4 39
28 43 14 46 -162z m-1568 128 c0 -35 -3 -40 -22 -40 -53 0 -562 -31 -663 -40
-60 -5 -263 -21 -450 -35 -187 -15 -363 -30 -392 -34 -58 -9 -67 -2 -57 48 l6
28 181 12 c100 6 351 25 557 42 481 39 711 56 783 58 l57 1 0 -40z m-15 -80
c0 -14 6 -31 13 -38 10 -11 12 -187 8 -880 -3 -477 -5 -874 -5 -882 0 -8 2
-176 5 -373 4 -202 2 -363 -3 -368 -5 -5 -170 -26 -368 -48 -555 -62 -834
-104 -856 -128 -3 -5 -17 -34 -30 -66 -13 -32 -28 -62 -34 -66 -8 -6 -254 -41
-287 -41 -5 0 -8 630 -8 1400 0 1253 2 1400 15 1400 32 0 362 20 415 25 30 3
100 8 155 10 55 3 125 7 155 10 50 5 191 16 580 45 80 6 159 15 175 20 49 14
70 8 70 -20z m2529 -2450 c44 -22 42 -36 -7 -65 -43 -25 -52 -26 -243 -31
-316 -8 -630 -24 -889 -44 -316 -26 -848 -85 -992 -110 -126 -23 -202 -27
-247 -15 -22 6 -32 4 -41 -8 -8 -12 -52 -19 -181 -32 -93 -9 -221 -22 -284
-30 -221 -26 -242 -27 -320 -10 -135 30 -353 65 -399 65 -25 0 -53 5 -61 10
-8 5 -10 10 -5 10 6 0 80 9 165 20 85 10 229 26 320 35 91 8 219 22 285 30 66
8 165 19 220 24 55 6 165 17 244 26 80 8 260 24 400 35 141 12 351 29 466 40
686 62 1495 88 1569 50z m63 -75 c-14 -11 -56 -39 -94 -63 -38 -23 -97 -68
-131 -99 -35 -30 -65 -53 -68 -50 -5 5 34 45 91 92 21 17 43 36 50 43 8 6 18
12 23 12 6 0 12 4 14 9 8 22 94 80 116 78 l24 -2 -25 -20z m-2552 -887 c-4
-304 -2 -785 3 -1068 7 -383 7 -521 -2 -540 -6 -14 -31 -35 -56 -47 -45 -23
-529 -137 -538 -128 -7 7 -9 2122 -2 2128 3 2 88 12 190 21 102 9 208 19 236
23 47 5 52 4 58 -18 4 -13 10 -384 13 -824 3 -440 9 -809 13 -820 18 -48 21
90 18 855 -3 725 -5 809 -20 842 -29 65 -42 68 -218 53 -270 -23 -285 -23
-285 0 0 18 12 21 165 37 91 9 199 21 240 26 41 5 101 10 133 11 l58 1 -6
-552z m-1325 523 c0 -6 -4 -12 -9 -15 -5 -3 -28 -50 -51 -103 -23 -54 -48
-104 -54 -111 -9 -9 -33 -10 -89 -6 l-77 7 0 103 0 103 43 6 c206 27 237 29
237 16z m4764 -30 c9 -13 -4 -42 -15 -35 -5 3 -8 0 -7 -7 2 -8 -9 -14 -26 -15
-16 -2 -34 -8 -40 -15 -8 -9 -8 -10 1 -5 8 4 11 2 8 -6 -3 -7 -1 -19 4 -27 8
-12 19 -7 56 28 42 38 49 42 62 28 20 -20 2 -49 -44 -71 -45 -21 -57 -20 -89
7 -32 28 -26 46 31 96 37 32 50 37 59 22z m-794 -121 c-16 -143 -9 -204 40
-307 30 -65 43 -83 59 -83 20 0 21 5 21 113 0 112 22 230 39 211 5 -5 18 -42
31 -83 12 -41 51 -132 86 -203 69 -138 114 -259 114 -307 0 -16 5 -42 11 -58
10 -27 11 -27 24 -9 8 10 16 23 18 29 1 5 38 17 82 26 43 10 82 24 87 32 4 8
18 41 29 74 51 140 186 201 251 114 22 -30 47 -132 48 -196 0 -72 -20 -141
-61 -202 -46 -69 -101 -108 -160 -114 -32 -3 -43 -8 -39 -18 3 -8 4 -52 4 -99
-1 -69 -6 -96 -28 -145 -47 -104 -61 -113 -331 -220 -256 -101 -387 -137 -448
-121 -15 3 -31 19 -40 38 -21 46 -32 155 -17 173 9 11 4 19 -28 39 -52 32 -75
91 -46 114 21 16 126 11 183 -9 41 -14 50 -6 18 16 -28 18 -165 26 -204 12
-19 -7 -22 -3 -32 45 -7 29 -15 79 -18 111 -5 49 -10 61 -32 75 -64 39 -141
128 -141 162 0 6 36 49 80 95 121 127 142 187 104 302 -29 89 -29 166 3 263
l18 55 5 -85 c7 -99 13 -116 44 -124 20 -5 24 -14 30 -63 4 -31 11 -62 17 -69
6 -7 11 -51 12 -98 2 -86 13 -114 40 -103 21 8 32 119 18 177 -6 25 -18 71
-25 102 -8 32 -11 60 -7 63 10 5 63 -42 79 -70 11 -19 11 -19 12 6 0 19 -8 29
-27 39 -17 7 -23 15 -15 17 7 3 29 -5 48 -17 20 -11 38 -19 41 -16 2 2 -18 14
-45 27 -41 20 -51 30 -56 56 -8 40 9 149 34 221 21 60 68 137 77 128 3 -3 0
-55 -7 -116z m1930 99 c222 -12 456 -34 489 -47 21 -7 20 -9 -19 -22 -36 -12
-67 -11 -248 8 -114 11 -268 26 -342 33 -174 15 -213 22 -217 36 -3 8 16 10
69 7 40 -2 161 -9 268 -15z m-2554 -41 c-35 -60 -65 -177 -73 -279 -5 -76 -4
-87 12 -92 19 -8 35 -1 35 14 0 6 20 38 44 72 24 34 57 88 72 120 l29 59 5
-149 c5 -144 6 -151 39 -218 19 -38 55 -91 79 -117 51 -55 56 -38 -46 -157
-90 -104 -92 -112 -40 -178 40 -52 114 -123 129 -123 3 0 10 -33 13 -72 9 -92
33 -210 44 -217 15 -10 33 -49 25 -54 -5 -3 -57 -13 -118 -22 -60 -9 -173 -27
-250 -40 -77 -13 -255 -40 -395 -60 -140 -19 -295 -42 -345 -50 -49 -8 -175
-28 -280 -45 -311 -50 -545 -78 -553 -66 -4 6 -8 360 -10 786 -4 649 -2 778
10 787 8 7 130 20 293 33 289 22 865 72 1085 95 69 7 147 13 173 14 l48 1 -25
-42z m1881 -67 c38 -107 49 -213 22 -219 -13 -2 -18 20 -31 127 -22 179 -36
197 -36 47 -1 -70 -5 -123 -11 -129 -6 -6 -11 -22 -11 -34 0 -25 -28 -88 -36
-80 -9 9 18 254 32 280 8 16 14 47 14 69 0 64 21 41 57 -61z m334 42 c77 -87
98 -143 104 -270 2 -58 0 -85 -9 -92 -11 -9 -15 3 -20 56 -8 80 -54 194 -103
258 -50 66 -26 108 28 48z m-705 -29 c-3 -9 -6 -19 -6 -24 0 -12 -50 -70 -61
-70 -21 0 -7 50 22 79 33 33 55 41 45 15z m62 -57 c-7 -31 -9 -59 -5 -63 4 -4
24 12 46 35 36 38 61 52 61 34 0 -13 -59 -111 -70 -118 -5 -3 -10 1 -10 9 0 9
-7 16 -15 16 -15 0 -19 -11 -16 -38 3 -17 -28 -52 -45 -52 -7 0 -16 5 -19 11
-8 13 14 69 27 69 6 0 7 16 3 41 -6 32 -2 49 16 84 30 57 42 45 27 -28z m142
-61 c0 -43 -47 -136 -74 -146 -36 -13 -41 16 -9 57 47 59 63 87 63 111 0 13 4
20 10 17 6 -3 10 -21 10 -39z m-216 -948 c-9 -21 -14 -41 -11 -45 6 -5 67 33
133 82 22 16 27 -2 32 -115 3 -61 8 -112 12 -115 4 -2 24 0 46 6 28 8 58 30
107 82 59 61 70 69 78 54 6 -9 17 -17 25 -17 8 0 18 -10 23 -23 7 -17 16 -23
37 -21 16 1 44 2 62 3 28 1 32 4 32 29 0 21 2 24 10 12 19 -29 11 -58 -22 -81
-18 -13 -62 -48 -98 -79 -36 -31 -112 -94 -170 -140 -58 -46 -157 -135 -221
-197 l-116 -114 -39 35 c-21 20 -90 72 -152 117 -94 67 -117 89 -138 131 -14
27 -24 51 -22 52 2 2 35 18 75 36 116 52 156 126 157 287 l1 103 30 0 c18 0
54 15 85 34 l55 35 3 -57 c2 -37 -3 -69 -14 -94z m1067 -55 c37 -40 181 -232
207 -274 12 -20 35 -53 52 -74 16 -21 30 -41 30 -44 0 -3 -53 -7 -118 -8 -395
-8 -896 -107 -1179 -233 -85 -37 -111 -42 -96 -16 27 44 480 440 596 521 76
54 190 97 348 134 115 26 131 26 160 -6z m294 -444 c22 -22 94 -83 160 -134
151 -118 206 -175 289 -298 120 -178 207 -388 310 -744 87 -304 139 -565 206
-1033 56 -395 111 -723 135 -810 l15 -55 -151 -305 c-225 -453 -318 -672 -355
-830 -14 -61 -18 -142 -21 -432 -3 -197 -7 -358 -9 -358 -2 0 -206 40 -452 89
-666 134 -762 162 -890 265 -110 89 -252 182 -361 238 -105 53 -160 66 -66 15
64 -35 427 -279 422 -284 -2 -1 -77 29 -166 67 -216 92 -298 119 -418 133
l-100 12 -78 85 c-80 87 -114 145 -115 192 0 61 41 236 70 294 43 87 150 186
266 247 85 43 132 82 177 147 24 34 32 21 62 -94 31 -120 49 -155 40 -80 -7
66 -34 167 -84 319 -21 66 -41 133 -43 149 l-3 29 87 -2 c124 -3 167 17 206
96 62 123 98 264 218 848 19 94 51 262 70 375 83 481 46 788 -136 1130 -42 80
-53 83 -20 5 55 -129 122 -324 141 -417 31 -140 33 -461 6 -613 -122 -664
-170 -897 -232 -1105 -64 -216 -111 -293 -188 -304 -96 -14 -244 38 -412 146
-38 24 -128 78 -200 120 -209 121 -351 224 -461 333 -126 125 -154 177 -154
283 0 99 32 191 129 372 157 292 190 358 249 495 86 200 118 332 157 650 39
320 99 410 352 530 152 73 264 115 378 144 153 39 467 87 725 111 69 6 134 13
145 14 52 8 63 4 100 -35z m-5769 -154 c9 -24 14 -73 14 -157 0 -145 11 -313
45 -683 13 -148 29 -340 36 -425 6 -85 17 -170 25 -189 19 -46 38 -209 30
-254 -6 -32 -11 -37 -44 -42 -245 -42 -642 -128 -1037 -225 -267 -66 -363 -88
-575 -131 -168 -34 -203 -30 -214 23 -3 17 -6 193 -6 392 0 198 -5 462 -10
586 -5 124 -10 382 -11 574 -2 310 0 350 14 358 47 26 336 79 807 147 301 44
458 56 733 59 l178 2 15 -35z m4131 -95 c59 -12 115 -23 124 -26 13 -3 1 -20
-48 -67 -99 -95 -139 -192 -159 -390 -4 -37 -10 -69 -13 -72 -4 -2 -124 -33
-266 -70 -424 -108 -639 -164 -835 -215 -102 -27 -259 -65 -350 -85 -91 -20
-272 -62 -402 -95 -131 -33 -311 -73 -400 -90 -252 -48 -407 -85 -744 -176
l-312 -85 -233 156 c-128 86 -247 168 -266 182 l-33 25 0 157 0 157 42 10 c37
8 45 14 54 44 11 34 13 35 85 45 l73 10 12 40 c12 45 22 49 199 86 l100 21 80
-79 c51 -50 101 -90 138 -108 l59 -28 165 17 c91 10 166 16 168 14 1 -2 12
-22 24 -46 32 -63 88 -114 198 -178 164 -97 219 -116 358 -124 66 -4 164 -5
218 -3 180 5 454 74 601 150 127 66 276 240 276 323 0 26 -36 68 -88 102 -21
15 -17 16 85 37 235 49 577 136 797 203 123 37 146 57 146 128 0 60 -6 59 147
30z m3087 -38 l40 -7 -30 -14 c-28 -14 -28 -15 -6 -19 13 -2 31 3 40 11 24 20
157 9 157 -13 0 -12 -23 -18 -101 -28 -56 -6 -144 -23 -195 -36 l-94 -24 -36
35 c-25 24 -49 36 -75 39 -47 6 -180 -18 -176 -32 1 -5 14 -43 28 -84 18 -50
24 -87 21 -112 -5 -36 -5 -37 17 -23 54 36 307 110 444 130 146 22 383 17 409
-9 4 -3 2 -11 -4 -17 -11 -11 -30 -13 -255 -24 -224 -11 -382 -47 -581 -131
l-80 -33 -41 30 c-37 27 -38 30 -16 28 60 -5 63 -3 57 46 -4 25 -14 57 -24 72
-23 34 -91 83 -116 83 -21 0 -87 -61 -87 -80 0 -15 -11 -12 -26 8 -20 26 -17
30 20 37 19 4 43 17 54 30 19 21 104 55 139 55 7 0 30 11 51 24 44 29 124 47
252 56 132 10 169 10 214 2z m143 -8 c-3 -3 -12 -4 -19 -1 -8 3 -5 6 6 6 11 1
17 -2 13 -5z m328 -298 c0 -23 -38 -38 -190 -72 -60 -13 -153 -34 -205 -46
-52 -11 -177 -52 -277 -89 -100 -38 -187 -69 -193 -69 -6 0 -24 -7 -40 -15
-23 -12 -30 -13 -30 -3 2 50 415 206 750 283 161 38 185 39 185 11z m-1177
-135 c50 -22 106 -41 122 -41 33 0 36 -9 19 -60 l-12 -32 -86 7 c-47 4 -89 10
-93 13 -13 13 -68 175 -56 165 7 -6 55 -29 106 -52z m-3689 -534 c123 -80 153
-102 178 -135 15 -20 107 -116 205 -213 110 -109 178 -184 178 -196 0 -24 39
-77 120 -163 l61 -65 -26 -90 c-34 -121 -34 -218 -1 -283 14 -26 54 -82 90
-126 36 -43 66 -80 66 -83 0 -2 -6 -16 -14 -31 -25 -50 -29 -73 -12 -66 9 3
16 14 16 23 0 9 7 24 14 34 13 17 16 17 39 2 19 -12 26 -27 29 -64 5 -52 36
-121 71 -158 48 -52 50 -13 3 48 -30 38 -64 124 -54 134 2 2 36 -22 75 -53 71
-57 162 -115 408 -261 151 -89 142 -66 93 -251 -60 -230 -82 -280 -140 -323
-29 -22 -101 -25 -168 -7 -96 26 -327 229 -439 387 -138 194 -216 359 -328
688 -41 121 -96 264 -123 318 -54 107 -57 122 -36 210 7 31 10 57 5 57 -17 0
-41 -112 -37 -166 3 -39 1 -54 -8 -54 -20 0 -185 60 -213 78 -14 9 -99 69
-187 134 -106 77 -178 123 -210 133 -62 19 -64 18 -37 -3 35 -27 16 -47 -25
-26 -35 17 -41 31 -17 40 14 6 13 8 -1 19 -33 24 -6 34 74 28 63 -5 75 -3 65
8 -9 9 -50 13 -147 14 -116 1 -138 3 -155 19 -18 17 -19 21 -6 45 11 22 25 29
77 40 34 7 86 23 114 36 70 32 160 47 277 47 97 0 99 -1 144 -36 53 -41 78
-37 36 6 -37 39 -58 50 -113 57 -113 14 -229 -5 -367 -60 -115 -46 -150 -35
-102 33 48 67 137 102 327 129 268 38 235 42 331 -40 111 -94 138 -91 39 4
-98 92 -122 101 -219 80 -55 -12 -267 -44 -297 -45 -10 0 17 26 71 67 40 32
89 57 142 75 44 15 84 28 89 28 6 0 26 -10 45 -23z m-851 -308 c199 -132 232
-158 232 -180 0 -27 -7 -25 -80 25 -36 24 -108 71 -160 104 -52 33 -115 78
-140 101 -45 40 -45 40 -17 41 19 0 72 -29 165 -91z m313 53 c-15 -29 -39 -45
-57 -38 -23 9 -13 39 16 47 44 12 52 11 41 -9z m-1393 -161 c-15 -24 -26 -13
153 -151 54 -41 157 -122 229 -179 193 -151 659 -501 667 -501 31 0 320 78
703 189 401 117 485 135 496 107 4 -9 5 -19 2 -21 -8 -8 -808 -234 -996 -281
l-193 -48 -44 23 c-47 25 -257 181 -505 376 -85 67 -193 150 -240 185 -162
122 -308 241 -314 255 -3 8 6 28 21 45 28 34 42 34 21 1z m1760 -338 c69 -52
86 -73 59 -73 -7 0 -48 23 -92 50 -44 28 -83 50 -87 50 -12 0 -29 50 -22 61 6
10 26 -3 142 -88z m179 -84 c35 -22 31 -38 -9 -39 -11 0 -18 -10 -20 -32 l-4
-33 -13 30 c-7 16 -15 32 -19 35 -4 3 -12 15 -19 27 -13 22 -11 24 41 32 5 0
24 -9 43 -20z m-3047 -418 c0 -13 -179 -82 -310 -120 -123 -37 -509 -131 -533
-131 -30 0 -18 20 20 37 21 8 139 42 263 74 124 32 293 79 375 103 156 47 185
52 185 37z m85 -30 c6 -21 63 -36 95 -26 13 4 20 0 25 -15 7 -24 61 -51 82
-43 15 6 73 -16 73 -27 0 -4 -9 -10 -19 -13 -10 -2 -24 -14 -30 -26 -17 -30
11 -39 56 -17 31 15 38 15 50 3 13 -13 11 -17 -15 -36 -33 -23 -63 -27 -93
-11 -16 9 -19 7 -19 -8 0 -10 -5 -23 -11 -29 -24 -24 108 20 134 45 l28 27 30
-33 c16 -18 29 -38 29 -46 0 -7 -34 -23 -82 -39 -46 -14 -168 -56 -273 -92
-331 -116 -448 -153 -515 -166 -65 -11 -66 -11 -220 39 -85 28 -201 62 -256
76 -56 14 -112 29 -124 34 -23 8 -22 9 11 32 19 13 37 29 41 35 9 15 267 -69
365 -118 37 -19 78 -38 91 -41 l22 -7 -25 48 c-19 35 -38 55 -72 73 -54 29
-64 47 -31 53 15 3 11 5 -13 6 -27 1 -40 -5 -51 -20 l-14 -22 -31 32 c-22 21
-42 31 -65 32 -18 1 -37 2 -43 4 -5 1 -20 3 -32 3 -13 1 -23 6 -23 11 0 15 71
39 242 81 90 23 186 50 213 60 28 11 127 43 220 71 113 34 175 57 184 70 18
25 58 25 66 0z m300 -101 c3 -5 1 -10 -4 -10 -6 0 -11 5 -11 10 0 6 2 10 4 10
3 0 8 -4 11 -10z m234 -121 c43 -15 59 -45 28 -53 -12 -3 -37 -6 -56 -6 -28 0
-32 2 -21 15 6 8 9 23 5 35 -7 23 -1 24 44 9z m6971 1 c0 -15 -39 -92 -133
-260 -44 -80 -130 -246 -189 -370 -60 -124 -120 -247 -134 -275 l-24 -50 5 40
c16 113 180 481 335 750 73 127 140 205 140 165z m-8520 -65 c-7 -9 -15 -13
-18 -10 -3 2 1 11 8 20 7 9 15 13 18 10 3 -2 -1 -11 -8 -20z m-64 -80 c-4 -14
-13 -25 -21 -25 -8 0 -15 -8 -15 -17 0 -20 -28 -53 -45 -53 -7 0 -16 -8 -20
-17 -10 -28 29 -54 191 -123 82 -35 235 -107 339 -160 105 -53 220 -109 256
-124 64 -28 87 -56 45 -56 -35 0 -414 158 -601 250 -99 49 -212 113 -252 142
-61 45 -72 58 -73 83 0 28 5 32 61 52 l60 22 8 -22 c8 -20 9 -19 16 13 8 37
47 89 53 70 2 -6 1 -22 -2 -35z m1678 36 c12 -18 -25 -34 -299 -130 -231 -80
-365 -133 -365 -142 0 -19 61 -20 93 -1 17 11 64 30 102 43 39 12 75 26 81 31
48 36 466 157 499 144 7 -2 11 -15 8 -29 -4 -21 0 -25 32 -31 20 -4 55 -17 78
-29 23 -12 53 -22 67 -21 31 2 50 -12 50 -38 0 -30 -43 -20 -50 12 l-6 25 -18
-27 c-13 -20 -27 -28 -47 -28 -19 0 -29 -5 -29 -14 0 -12 7 -13 32 -6 29 9 35
6 79 -35 44 -42 50 -44 78 -34 41 14 39 25 -4 33 -21 4 -33 11 -29 17 3 6 16
8 28 5 13 -3 32 1 45 10 20 14 24 14 46 0 13 -9 39 -16 57 -16 41 0 29 -10
-57 -45 -38 -16 -113 -49 -165 -75 -151 -73 -375 -162 -479 -190 -96 -25 -96
-25 -105 -63 -12 -46 -27 -47 -51 -3 -15 28 -43 47 -154 104 -149 77 -245 118
-298 128 -40 8 -39 28 3 32 50 5 84 23 90 49 10 37 -2 38 -43 4 -47 -39 -73
-41 -73 -5 0 16 12 38 33 58 26 27 45 34 107 45 105 17 170 32 205 47 29 13
28 13 -33 14 -35 0 -95 -7 -135 -15 -125 -27 -115 -26 -93 -10 11 8 44 22 75
30 31 9 148 46 261 82 113 37 225 70 250 73 67 11 128 11 134 1z m466 -106
l25 -13 -28 -11 c-33 -13 -43 -9 -50 19 -6 24 15 26 53 5z m125 -45 c0 -22
-39 -19 -43 3 -3 15 1 18 20 15 12 -2 23 -10 23 -18z m-1385 -80 c-17 -22 -39
-40 -48 -40 -10 0 -13 3 -7 8 6 4 21 22 34 40 12 17 29 32 38 32 10 0 6 -12
-17 -40z m-935 -82 c93 -55 268 -141 395 -193 63 -26 189 -78 280 -115 144
-60 421 -165 672 -254 l76 -27 4 -65 c2 -35 0 -64 -4 -64 -4 0 -35 7 -70 15
-113 26 -249 72 -413 140 -88 37 -227 92 -310 124 -82 32 -226 92 -320 134
-93 41 -208 91 -255 111 -47 21 -109 54 -139 74 l-54 37 -2 92 -2 92 41 -33
c22 -18 68 -49 101 -68z m2383 90 c19 -19 14 -26 -25 -37 -51 -14 -60 -14 -67
5 -4 10 4 19 27 29 40 18 50 18 65 3z m-2018 -60 c206 -65 339 -80 482 -52
l26 5 -5 -58 c-7 -75 0 -81 157 -138 67 -24 143 -57 167 -72 25 -16 82 -48
127 -71 73 -40 86 -43 131 -39 28 3 152 46 285 97 265 104 615 238 645 248 48
17 65 36 65 75 l0 39 33 -20 c17 -12 72 -44 120 -72 l88 -52 -3 -81 -3 -82
-93 -47 c-85 -42 -254 -101 -585 -203 -65 -20 -200 -74 -301 -120 -101 -46
-200 -87 -220 -90 l-36 -7 0 61 c0 47 4 62 18 69 9 5 127 44 262 86 423 132
793 256 856 287 35 16 66 39 74 54 12 23 11 28 -10 50 -12 13 -35 27 -50 30
-16 3 -40 17 -54 30 l-25 23 -78 -32 c-43 -18 -154 -69 -248 -113 -240 -114
-245 -115 -500 -189 -126 -36 -235 -70 -242 -75 -8 -7 -22 -5 -44 7 -19 9 -65
23 -104 31 -129 27 -293 93 -650 263 -71 34 -206 93 -300 132 -93 39 -174 75
-180 80 -12 12 -16 13 195 -54z m5420 13 l55 -26 16 -75 c9 -41 24 -99 33
-129 9 -30 16 -60 16 -66 0 -18 -78 -104 -109 -119 -14 -7 -53 -17 -86 -21
-33 -4 -89 -18 -124 -31 -35 -13 -66 -22 -69 -19 -3 3 9 25 27 50 18 25 41 71
52 101 23 65 89 330 89 357 0 22 16 18 100 -22z m-787 -233 c51 -51 127 -118
170 -148 42 -30 77 -58 77 -62 0 -4 -35 -14 -77 -23 -169 -37 -685 -167 -813
-205 -161 -48 -653 -174 -1015 -259 -143 -34 -363 -90 -490 -126 -405 -112
-677 -183 -805 -210 -69 -14 -215 -46 -325 -70 -111 -25 -206 -45 -213 -45 -9
0 -12 47 -12 183 l0 184 88 20 c208 50 884 223 962 247 47 14 216 59 375 100
160 41 403 104 540 141 138 36 392 104 565 150 173 46 392 102 485 124 94 23
215 52 270 65 55 13 106 25 113 25 7 1 54 -41 105 -91z m527 -344 c0 -8 -4
-12 -10 -9 -5 3 -10 0 -10 -8 0 -18 -22 -27 -48 -20 -12 3 -20 13 -19 23 0 10
6 16 12 14 6 -3 22 0 36 5 34 14 39 13 39 -5z m-91 -64 c0 -24 0 -24 -9 -3 -7
17 -15 21 -36 17 -15 -3 -31 -7 -35 -10 -4 -2 -10 0 -13 4 -3 5 13 15 34 22
22 7 40 18 41 24 1 21 18 -29 18 -54z m30 -1 c-16 -10 -23 -4 -14 10 3 6 11 8
17 5 6 -4 5 -9 -3 -15z m-156 -30 c-10 -16 -24 -29 -33 -29 -12 1 -11 4 4 15
11 8 17 18 13 21 -9 10 13 35 24 28 5 -3 2 -19 -8 -35z m-37 10 c10 -16 -18
-41 -39 -35 -11 3 -29 0 -40 -6 -14 -7 -17 -7 -13 1 4 6 3 11 -2 11 -11 0 -26
-30 -23 -45 1 -5 -5 -3 -14 6 -16 16 -21 15 -73 -13 -31 -16 -62 -34 -69 -40
-9 -7 -13 -7 -13 1 0 7 -5 9 -10 6 -6 -4 -8 -11 -5 -16 4 -5 -1 -9 -9 -9 -8 0
-18 5 -21 10 -10 16 -25 12 -19 -5 5 -11 -1 -15 -24 -15 -16 0 -35 -6 -41 -14
-7 -8 -23 -13 -36 -11 -14 1 -25 -1 -25 -5 0 -5 -9 -6 -20 -3 -10 3 -26 -2
-35 -11 -9 -9 -28 -19 -43 -22 -56 -12 -112 -39 -107 -51 3 -8 -5 -13 -20 -13
-13 0 -26 -4 -30 -9 -7 -13 -46 -5 -56 11 -13 20 -3 21 28 1 25 -16 27 -16 14
0 -12 15 -11 17 3 17 9 0 16 5 16 11 0 6 7 8 16 5 8 -3 12 -2 9 4 -3 6 3 10
14 10 10 0 32 6 48 14 15 8 40 19 56 25 61 25 83 34 112 46 43 19 78 29 93 27
6 -2 12 2 12 8 0 6 5 8 10 5 14 -9 52 4 45 16 -4 5 8 9 24 9 17 0 31 5 31 11
0 5 4 8 9 4 5 -3 12 -1 15 3 3 5 16 7 29 5 13 -3 29 2 36 11 7 8 20 12 28 9
11 -4 14 -2 9 5 -4 7 -4 12 1 13 39 3 67 9 74 16 12 12 48 13 55 2z m69 -99
c-3 -5 -11 -10 -16 -10 -6 0 -7 5 -4 10 3 6 11 10 16 10 6 0 7 -4 4 -10z m15
-35 c0 -8 -4 -15 -8 -15 -5 0 -9 7 -9 15 0 8 4 15 9 15 4 0 8 -7 8 -15z m-140
-25 c0 -5 -4 -10 -10 -10 -5 0 -10 5 -10 10 0 6 5 10 10 10 6 0 10 -4 10 -10z
m153 -7 c-6 -16 -86 -32 -94 -20 -4 6 -18 5 -35 -1 -23 -8 -25 -11 -9 -12 14
-1 10 -5 -15 -15 -54 -21 -69 -19 -63 8 3 16 2 18 -5 8 -13 -17 -52 -5 -52 17
0 12 3 13 11 5 14 -14 95 -7 154 12 49 17 114 15 108 -2z m-361 -75 c-6 -6
-15 -8 -19 -4 -4 4 -1 11 7 16 19 12 27 3 12 -12z m128 13 c0 -5 -10 -11 -22
-15 -34 -9 -38 -7 -32 9 6 16 54 21 54 6z m-70 -25 c0 -2 -13 -6 -29 -8 -17
-2 -28 -1 -25 4 5 8 54 12 54 4z m-100 -26 c-19 -13 -30 -13 -30 0 0 6 10 10
23 10 18 0 19 -2 7 -10z m-490 -5 c0 -2 -7 -11 -16 -19 -14 -15 -14 -16 0 -16
10 0 16 -9 16 -25 0 -14 -5 -25 -11 -25 -5 0 -7 5 -4 10 8 12 -10 37 -36 51
-12 6 -20 5 -25 -3 -4 -7 -3 -8 4 -4 8 5 12 0 12 -13 0 -13 -5 -18 -13 -15 -8
3 -14 -6 -15 -27 -2 -24 1 -30 13 -25 20 7 19 -8 -1 -24 -12 -11 -15 -11 -12
0 2 7 -3 15 -9 17 -8 3 -13 -4 -13 -16 0 -12 -6 -21 -14 -21 -16 0 -26 -32
-19 -59 3 -13 11 -17 26 -14 15 3 18 2 9 -4 -7 -5 -10 -17 -7 -25 4 -9 1 -19
-4 -23 -6 -3 -8 -12 -5 -18 4 -7 -1 -5 -11 4 -9 9 -18 28 -18 42 -1 14 -6 23
-11 20 -5 -4 -6 7 -2 23 4 16 9 42 11 57 6 36 14 49 26 42 5 -3 6 1 3 9 -3 9
-1 16 6 16 6 0 9 4 6 8 -10 16 58 77 87 79 15 0 27 -1 27 -2z m730 -8 c-27
-15 -36 -14 -25 2 3 6 16 11 28 11 21 0 21 -1 -3 -13z m-310 -10 c-14 -6 -56
-25 -95 -43 -48 -21 -72 -28 -77 -20 -12 17 -9 33 3 16 7 -11 12 -12 15 -3 3
7 12 9 20 6 8 -3 14 0 14 7 0 6 5 8 11 5 5 -4 19 1 30 11 10 9 19 14 19 11 0
-3 15 0 33 8 17 8 37 14 42 14 6 0 -1 -5 -15 -12z m-378 -17 c19 -17 19 -20 5
-20 -9 0 -17 5 -17 10 0 6 -7 10 -15 10 -8 0 -15 5 -15 10 0 16 19 12 42 -10z
m598 -1 c19 -1 17 -3 -10 -8 -39 -8 -60 -4 -60 11 0 6 10 8 23 4 12 -3 33 -6
47 -7z m226 -52 c-15 -92 -45 -107 -346 -172 -41 -9 -102 -22 -135 -30 -60
-14 -110 -11 -99 6 3 5 13 3 23 -3 14 -9 23 -7 42 5 13 10 18 17 12 17 -6 0
-13 6 -16 13 -2 6 -3 4 -2 -5 4 -21 -4 -22 -26 -5 -16 12 -16 14 0 33 18 22
41 21 41 -2 0 -16 36 -19 45 -3 11 16 -5 25 -16 9 -8 -13 -10 -13 -19 0 -15
23 -12 28 15 22 18 -3 25 0 25 12 0 9 3 15 8 15 29 -5 48 24 21 33 -7 2 4 4
23 4 30 0 34 -3 30 -22 -3 -17 1 -21 22 -21 18 0 26 5 28 21 2 11 10 22 19 24
12 2 15 -4 11 -28 -4 -29 -2 -31 20 -29 14 2 32 -2 40 -9 12 -10 18 -9 27 2 8
9 8 16 2 20 -6 4 -8 13 -4 22 4 11 10 9 29 -11 14 -15 29 -23 36 -19 7 5 3 10
-12 16 -29 11 -24 16 21 21 19 2 40 7 47 11 7 4 17 4 24 0 6 -4 8 -3 5 3 -4 6
0 16 9 23 8 7 12 20 10 27 -4 11 0 13 14 8 23 -7 26 6 8 38 -10 20 -10 21 6 7
14 -11 17 -23 12 -53z m-303 34 c14 -2 7 -21 -8 -21 -8 0 -15 -4 -15 -10 0 -5
-4 -10 -10 -10 -5 0 -10 7 -10 15 0 8 -4 15 -10 15 -5 0 -7 -7 -4 -15 4 -10 0
-15 -10 -15 -10 0 -16 -7 -14 -16 2 -10 -3 -19 -9 -21 -7 -3 -13 2 -13 11 0
16 -32 18 -46 3 -4 -4 -22 -7 -40 -7 -18 0 -35 -6 -38 -12 -3 -7 -5 -4 -3 7 1
11 4 18 7 15 3 -2 16 3 30 13 13 9 32 17 42 17 10 0 18 4 18 10 0 5 6 7 13 4
7 -2 21 2 31 9 15 11 53 15 89 8z m-510 -18 c-7 -2 -21 -2 -30 0 -10 3 -4 5
12 5 17 0 24 -2 18 -5z m172 -3 c3 -5 -1 -10 -9 -10 -9 0 -16 5 -16 10 0 6 4
10 9 10 6 0 13 -4 16 -10z m-91 -38 c-8 -2 -12 -8 -9 -13 3 -5 -1 -6 -9 -3
-19 7 -20 16 -5 31 9 9 15 8 24 0 11 -10 10 -13 -1 -15z m61 8 c4 -6 11 -7 17
-4 7 4 8 2 4 -4 -4 -6 -14 -8 -23 -5 -10 4 -14 2 -10 -4 7 -12 -51 -58 -61
-48 -8 8 26 35 44 35 7 0 11 9 9 20 -4 21 9 27 20 10z m532 -12 c-3 -8 -6 -5
-6 6 -1 11 2 17 5 13 3 -3 4 -12 1 -19z m78 12 c3 -5 1 -10 -4 -10 -6 0 -11 5
-11 10 0 6 2 10 4 10 3 0 8 -4 11 -10z m-485 -24 c0 -2 -7 -7 -16 -10 -8 -3
-12 -2 -9 4 6 10 25 14 25 6z m-258 -55 c-1 -19 -4 -37 -7 -39 -11 -11 -35 23
-35 50 0 25 4 29 23 26 19 -3 22 -8 19 -37z m195 3 c-3 -3 -12 -4 -19 -1 -8 3
-5 6 6 6 11 1 17 -2 13 -5z m661 -10 c13 -23 3 -64 -14 -57 -8 3 -12 9 -9 13
3 5 -4 6 -15 3 -11 -3 -18 -9 -15 -13 6 -9 -42 -20 -50 -11 -6 6 74 80 87 81
4 0 11 -7 16 -16z m-788 2 c0 -3 -4 -8 -10 -11 -5 -3 -10 -1 -10 4 0 6 5 11
10 11 6 0 10 -2 10 -4z m60 -16 c24 -15 7 -18 -20 -3 -14 7 -18 13 -10 13 8 0
22 -4 30 -10z m-137 -43 c9 -1 17 -5 17 -9 0 -4 -27 -8 -60 -8 -49 0 -60 3
-60 16 0 14 7 15 43 9 23 -4 50 -8 60 -8z m-141 -29 c-8 -10 18 -12 126 -10
75 2 139 8 140 13 2 5 11 9 19 9 25 0 -32 -40 -59 -41 l-23 -1 25 -8 c15 -5
-28 -8 -111 -9 -129 -1 -137 0 -142 19 -3 12 1 24 11 30 23 13 26 12 14 -2z
m806 -17 c3 -9 -2 -11 -16 -6 -12 3 -30 1 -42 -5 -16 -8 -20 -8 -18 2 2 9 -7
12 -27 11 -25 -2 -26 -1 -10 6 30 13 108 7 113 -8z m-458 -11 c-8 -5 -19 -10
-25 -10 -5 0 -3 5 5 10 8 5 20 10 25 10 6 0 3 -5 -5 -10z m277 4 c-3 -3 -12
-4 -19 -1 -8 3 -5 6 6 6 11 1 17 -2 13 -5z m43 -34 c0 -5 -7 -10 -16 -10 -8 0
-12 5 -9 10 3 6 10 10 16 10 5 0 9 -4 9 -10z m377 -6 c-3 -3 -12 -4 -19 -1 -8
3 -5 6 6 6 11 1 17 -2 13 -5z m-994 -41 c-7 -2 -21 -2 -30 0 -10 3 -4 5 12 5
17 0 24 -2 18 -5z m694 -9 c-3 -3 -12 -4 -19 -1 -8 3 -5 6 6 6 11 1 17 -2 13
-5z m260 -392 c-9 -2 -27 6 -39 18 l-23 22 39 -19 c24 -11 33 -19 23 -21z
m266 -111 c-8 -5 -9 -14 -4 -38 1 -5 6 -1 11 7 7 11 10 5 10 -23 0 -34 -3 -38
-22 -35 -18 2 -23 10 -24 36 -1 17 3 32 7 32 4 0 6 9 4 19 -3 14 1 18 12 14 8
-3 11 -9 6 -12z m47 -21 c6 -11 9 -20 8 -20 -2 0 -11 9 -21 20 -9 11 -13 20
-7 20 5 0 14 -9 20 -20z m35 -8 c-3 -3 -11 0 -18 7 -9 10 -8 11 6 5 10 -3 15
-9 12 -12z"/>
<path d="M5114 9723 c2 -9 8 -18 15 -19 6 -1 7 0 1 3 -5 2 -8 9 -5 13 3 5 1
11 -4 14 -5 4 -8 -2 -7 -11z"/>
<path d="M5183 9527 c-3 -4 -2 -11 1 -14 3 -4 6 0 6 8 1 8 8 2 16 -14 11 -21
12 -32 3 -48 -8 -16 -8 -20 0 -14 8 4 10 -2 7 -21 -3 -17 -2 -24 4 -18 11 11
14 33 12 89 -2 34 -5 41 -23 41 -11 0 -23 -4 -26 -9z"/>
<path d="M4900 9385 c0 -8 5 -15 10 -15 6 0 10 7 10 15 0 8 -4 15 -10 15 -5 0
-10 -7 -10 -15z"/>
<path d="M5002 9266 c7 -8 17 -12 22 -9 4 3 2 9 -5 14 -22 13 -31 11 -17 -5z"/>
<path d="M5401 7564 c0 -11 3 -14 6 -6 3 7 2 16 -1 19 -3 4 -6 -2 -5 -13z"/>
<path d="M2571 6344 c-20 -26 -21 -37 -21 -413 0 -393 2 -411 37 -411 27 0 33
80 33 447 0 204 -3 378 -6 387 -9 23 -19 20 -43 -10z"/>
<path d="M2285 6166 c-15 -11 -18 -36 -20 -197 -2 -194 4 -229 43 -229 38 0
42 19 42 189 0 215 -16 273 -65 237z"/>
<path d="M2442 6167 c-9 -11 -15 -239 -12 -483 0 -35 24 -52 46 -33 11 9 14
60 14 251 0 226 -5 278 -29 278 -5 0 -13 -6 -19 -13z"/>
<path d="M2565 5120 c-23 -25 -19 -29 23 -23 24 4 32 10 30 22 -5 24 -32 25
-53 1z"/>
<path d="M2277 5103 c-15 -14 -6 -23 13 -13 25 13 40 5 40 -20 0 -12 -9 -20
-25 -23 -25 -4 -25 -4 1 -3 35 1 53 28 35 50 -14 16 -52 22 -64 9z"/>
<path d="M2301 5010 c-11 -6 -8 -9 10 -12 19 -2 24 -9 24 -30 -1 -16 3 -28 7
-28 4 0 8 11 8 23 0 30 -30 59 -49 47z"/>
<path d="M5610 6363 c0 -25 108 -201 131 -214 18 -9 17 -5 -6 42 -27 51 -115
189 -121 189 -2 0 -4 -7 -4 -17z"/>
<path d="M5400 6301 c0 -14 14 -37 34 -56 37 -35 36 -46 -12 -97 -27 -29 -24
-50 3 -28 20 17 55 84 55 105 0 9 -7 18 -15 22 -9 3 -27 22 -40 42 -23 32 -25
33 -25 12z"/>
<path d="M6218 6260 c-80 -23 -119 -95 -117 -209 l2 -56 7 61 c9 77 44 150 84
175 40 24 92 25 105 2 6 -10 10 -13 11 -8 0 31 -46 48 -92 35z"/>
<path d="M5760 6121 c0 -6 4 -13 10 -16 6 -3 7 1 4 9 -7 18 -14 21 -14 7z"/>
<path d="M6136 6008 c-22 -34 -32 -102 -15 -96 15 5 69 105 61 113 -12 11 -32
4 -46 -17z"/>
<path d="M6795 4085 c9 -54 92 -300 116 -344 10 -20 19 -46 19 -58 0 -13 5
-23 10 -23 17 0 11 24 -39 162 -27 73 -59 167 -71 208 -26 85 -46 118 -35 55z"/>
<path d="M6861 4020 c-2 -38 82 -220 95 -207 2 2 -13 42 -34 88 -21 46 -44 95
-50 109 -6 14 -11 18 -11 10z"/>
<path d="M6940 3756 c0 -2 11 -28 25 -58 14 -29 25 -49 25 -45 0 20 -33 107
-41 107 -5 0 -9 -2 -9 -4z"/>
<path d="M6600 2400 c8 -5 22 -10 30 -10 13 0 13 1 0 10 -8 5 -22 10 -30 10
-13 0 -13 -1 0 -10z"/>
<path d="M6515 2340 c-3 -5 -2 -10 4 -10 5 0 13 5 16 10 3 6 2 10 -4 10 -5 0
-13 -4 -16 -10z"/>
<path d="M6424 2275 c11 -8 24 -15 30 -15 5 0 1 7 -10 15 -10 8 -23 14 -29 14
-5 0 -1 -6 9 -14z"/>
<path d="M6488 2283 c7 -3 16 -2 19 1 4 3 -2 6 -13 5 -11 0 -14 -3 -6 -6z"/>
<path d="M6896 1948 c-3 -18 -7 -76 -10 -128 -5 -95 -33 -214 -62 -274 -9 -17
-41 -56 -71 -88 -77 -78 -58 -93 21 -17 42 39 72 78 86 111 29 69 60 243 60
346 0 82 -15 112 -24 50z"/>
<path d="M6701 1630 c0 -19 4 -42 9 -50 8 -12 10 -11 9 5 -1 11 -5 34 -9 50
l-8 30 -1 -35z"/>
<path d="M1065 4660 c-196 -17 -494 -87 -548 -131 -50 -38 -52 -67 -50 -562 2
-493 5 -522 50 -533 30 -8 205 2 283 16 30 5 111 19 180 30 69 12 205 42 303
67 198 51 235 72 222 121 -4 15 -10 155 -15 312 -5 172 -15 326 -25 390 -9 58
-18 131 -21 163 -5 65 -24 111 -53 127 -22 11 -188 11 -326 0z m325 -148 c34
-27 60 -220 60 -448 0 -199 2 -194 -61 -194 -27 0 -29 2 -22 23 4 12 6 113 4
225 -2 143 0 202 8 202 16 0 14 41 -5 85 l-15 38 -67 -7 c-80 -8 -271 -52
-326 -75 -34 -15 -43 -27 -76 -100 -21 -46 -41 -78 -44 -72 -4 6 -2 19 4 30 6
11 9 24 8 28 -2 4 7 18 20 31 12 12 22 32 22 43 0 21 -3 22 -72 15 -89 -7
-191 -29 -242 -50 l-38 -16 8 -52 c14 -91 11 -109 -18 -130 -14 -11 -31 -17
-37 -14 -7 5 -11 43 -11 98 0 89 0 90 34 124 19 19 44 34 56 34 12 0 56 9 98
19 43 11 112 25 155 32 70 11 80 15 93 40 16 33 29 37 224 73 221 41 212 41
240 18z m-205 -212 c10 -33 -4 -60 -30 -60 -18 0 -26 7 -31 25 -11 46 47 79
61 35z m110 -135 c0 -26 -3 -30 -29 -30 -32 0 -53 23 -43 49 5 12 16 16 39 14
29 -3 33 -6 33 -33z m-453 -39 c-4 -36 -18 -47 -28 -23 -6 17 13 70 24 63 4
-3 6 -21 4 -40z m172 -61 c15 -19 35 -35 44 -35 10 0 29 -11 44 -25 15 -14 35
-25 46 -25 27 0 56 -25 49 -42 -4 -12 -25 -15 -94 -16 -48 -1 -120 -6 -160
-11 -40 -6 -79 -8 -88 -5 -19 8 -27 38 -29 106 l-1 52 60 17 c87 25 99 24 129
-16z m310 -188 c9 -24 6 -31 -17 -54 -26 -27 -94 -43 -407 -98 -47 -8 -100
-20 -118 -26 -25 -9 -40 -9 -58 0 -20 9 -26 8 -30 -3 -6 -16 -45 -33 -84 -38
-29 -4 -36 19 -25 88 8 55 9 55 185 74 132 13 405 57 465 74 66 18 78 16 89
-17z"/>
<path d="M1890 3617 c16 -21 2 -55 -22 -48 -42 11 -136 11 -158 -1 -57 -30
-88 -125 -60 -179 14 -25 62 -49 99 -49 l30 0 -24 48 c-22 41 -24 53 -16 101
12 79 52 102 104 61 14 -11 32 -20 40 -20 34 0 38 -26 12 -71 -13 -24 -25 -37
-25 -29 0 8 -7 2 -16 -15 -8 -16 -23 -38 -31 -47 -28 -31 1 -19 40 17 20 18
37 40 37 48 0 8 10 21 23 30 21 14 21 16 5 43 -9 16 -14 40 -11 55 3 18 -2 33
-19 50 -12 14 -16 17 -8 6z"/>
<path d="M1984 3528 c3 -13 6 -36 6 -51 0 -16 4 -26 10 -22 11 7 13 54 4 79
-9 25 -27 19 -20 -6z"/>
<path d="M1966 3326 c6 -15 -9 -19 -91 -29 -19 -3 -12 -5 18 -6 27 0 57 4 68
9 20 11 27 40 9 40 -5 0 -7 -6 -4 -14z"/>
<path d="M476 3301 c-8 -12 38 -41 52 -32 7 4 1 13 -18 24 -16 10 -31 13 -34
8z"/>
<path d="M557 3204 c-14 -15 -6 -23 23 -22 18 1 29 6 27 12 -4 13 -40 20 -50
10z"/>
<path d="M373 3190 c-13 -5 -23 -13 -24 -17 0 -4 -2 -18 -5 -30 -3 -18 3 -24
35 -34 29 -9 43 -8 60 1 21 11 22 10 10 -12 -12 -23 -12 -23 10 -4 34 30 27
72 -16 95 -25 13 -40 13 -70 1z"/>
<path d="M597 3138 c-11 -5 -33 -7 -50 -4 l-32 6 24 -20 c28 -24 54 -26 71 -5
17 21 9 36 -13 23z"/>
<path d="M4830 3677 c0 -24 83 -126 94 -116 6 6 -80 139 -90 139 -2 0 -4 -10
-4 -23z"/>
<path d="M1745 2492 c-70 -19 -69 -18 -61 -30 3 -6 24 -6 53 0 27 6 58 12 71
14 23 5 32 35 10 33 -7 0 -40 -8 -73 -17z"/>
<path d="M1558 2439 c-10 -5 -18 -14 -18 -19 0 -4 8 -7 18 -5 60 12 72 16 72
25 0 13 -50 12 -72 -1z"/>
<path d="M1248 2418 c-30 -30 -23 -48 20 -48 40 0 86 25 77 41 -4 5 6 9 22 9
22 0 25 2 13 10 -25 17 -111 9 -132 -12z"/>
<path d="M1861 2431 c-14 -4 -26 -12 -29 -20 -3 -10 7 -11 44 -6 68 9 85 15
79 26 -7 10 -58 10 -94 0z"/>
<path d="M1425 2403 c-27 -7 -44 -23 -23 -23 33 0 77 13 72 21 -5 9 -16 10
-49 2z"/>
<path d="M1872 2325 c-18 -8 -31 -19 -27 -25 7 -11 24 -4 60 24 25 19 10 20
-33 1z"/>
<path d="M1325 2300 l-27 -29 78 5 c74 5 144 27 144 46 0 11 -38 10 -45 -2 -8
-13 -81 -13 -104 0 -14 7 -24 3 -46 -20z"/>
<path d="M1548 2308 c7 -7 12 -24 12 -39 0 -52 70 -46 90 7 6 14 10 29 10 34
0 13 -33 -1 -47 -19 -10 -14 -14 -13 -35 7 -25 22 -52 32 -30 10z"/>
<path d="M1730 2293 c-8 -3 -26 -10 -39 -15 -40 -15 -17 -19 38 -6 28 6 51 15
51 20 0 9 -27 9 -50 1z"/>
<path d="M1186 2255 c-19 -14 -18 -15 10 -14 16 0 45 7 64 14 l35 13 -45 1
c-25 0 -54 -6 -64 -14z"/>
<path d="M1695 2240 c-13 -6 -15 -9 -5 -9 8 0 22 4 30 9 18 12 2 12 -25 0z"/>
<path d="M1435 2224 c-27 -7 -65 -13 -82 -13 -23 -1 -33 -6 -33 -16 0 -22 23
-28 75 -20 40 6 108 47 95 57 -3 2 -27 -1 -55 -8z"/>
<path d="M1435 2150 c-44 -16 -71 -29 -59 -29 22 -1 121 31 151 48 32 19 -7
10 -92 -19z"/>
<path d="M2415 2121 c-37 -6 -61 -15 -153 -57 -38 -18 -38 -19 0 -28 20 -4 34
0 58 21 20 16 43 26 62 25 17 0 41 6 52 14 23 16 50 19 41 4 -4 -6 10 -10 33
-10 35 0 52 11 52 36 0 6 -97 2 -145 -5z"/>
<path d="M2170 2020 c-8 -4 -28 -13 -45 -21 -16 -8 -30 -21 -30 -29 0 -19 43
-26 59 -10 8 9 4 10 -19 5 -23 -5 -26 -4 -15 4 8 6 22 11 31 11 19 0 43 25 37
38 -1 5 -10 6 -18 2z"/>
<path d="M2495 2005 c-29 -9 -36 -15 -24 -19 21 -9 81 6 87 22 5 15 -10 14
-63 -3z"/>
<path d="M1856 1965 c-4 -11 2 -15 24 -15 33 0 48 15 24 24 -26 10 -42 7 -48
-9z"/>
<path d="M2178 1963 c7 -3 16 -2 19 1 4 3 -2 6 -13 5 -11 0 -14 -3 -6 -6z"/>
<path d="M2363 1959 c-40 -11 -42 -26 -7 -39 58 -22 104 -1 74 35 -14 17 -21
17 -67 4z"/>
<path d="M1950 1954 c-16 -5 -57 -71 -49 -78 12 -11 110 -36 119 -31 5 3 10 1
10 -4 0 -6 -4 -11 -10 -11 -19 0 -10 -15 15 -27 20 -9 25 -8 25 3 0 10 8 12
29 8 36 -7 45 6 25 35 -14 20 -18 21 -37 8 -20 -12 -27 -11 -65 9 l-43 23 28
17 c15 10 30 19 32 21 2 1 -2 9 -9 18 -12 14 -37 17 -70 9z"/>
<path d="M2578 1929 c-55 -41 -21 -53 56 -19 25 10 46 23 46 28 0 18 -75 11
-102 -9z"/>
<path d="M2223 1907 c-66 -19 -62 -27 15 -27 72 0 83 5 60 28 -14 14 -19 14
-75 -1z"/>
<path d="M2285 1795 c-27 -13 -43 -24 -35 -24 17 -1 100 35 100 44 0 8 -12 5
-65 -20z"/>
<path d="M2144 1764 c-18 -15 -17 -15 15 -10 18 3 43 6 55 6 17 0 18 2 6 10
-22 14 -54 12 -76 -6z"/>
<path d="M5940 1182 c0 -4 10 -9 22 -9 18 -2 20 0 8 7 -18 12 -30 13 -30 2z"/>
<path d="M5815 1150 c-4 -6 3 -10 14 -10 25 0 27 6 6 13 -8 4 -17 2 -20 -3z"/>
<path d="M5540 848 c0 -4 16 -7 35 -6 19 1 35 5 35 9 0 4 -16 7 -35 6 -19 -1
-35 -5 -35 -9z"/>
<path d="M5630 850 c-11 -7 -5 -8 20 -4 43 8 51 14 19 14 -13 0 -31 -5 -39
-10z"/>
<path d="M5575 820 c-3 -5 -2 -10 4 -10 5 0 13 5 16 10 3 6 2 10 -4 10 -5 0
-13 -4 -16 -10z"/>
<path d="M5048 753 c6 -2 18 -2 25 0 6 3 1 5 -13 5 -14 0 -19 -2 -12 -5z"/>
<path d="M2860 9466 c0 -1289 -1 -1335 -18 -1341 -11 -3 -23 -15 -28 -28 -5
-12 -7 -190 -4 -412 l5 -390 38 -9 c74 -19 72 -29 71 333 -1 176 3 321 7 321
16 0 -3 95 -27 132 l-24 38 0 1345 c0 890 -3 1345 -10 1345 -7 0 -10 -451 -10
-1334z m8 -1566 l9 -175 1 173 c1 113 5 171 12 167 10 -6 5 -683 -6 -732 -3
-15 -12 -23 -24 -23 -20 0 -20 8 -20 392 0 417 11 500 28 198z"/>
<path d="M4678 10543 c-4 -349 0 -481 12 -501 7 -13 8 -6 4 24 -3 23 -2 44 2
47 13 7 6 687 -6 687 -6 0 -11 -99 -12 -257z"/>
<path d="M7930 9200 c0 -1060 3 -1600 10 -1600 6 0 10 54 10 143 1 288 1 2659
0 2855 0 128 -4 202 -10 202 -7 0 -10 -540 -10 -1600z"/>
<path d="M8010 9180 c0 -903 4 -1620 9 -1620 4 0 11 21 15 48 6 47 5 2805 -2
3060 -2 74 -7 132 -13 132 -5 0 -9 -610 -9 -1620z"/>
<path d="M10705 10333 c-22 -1 -155 -10 -295 -18 -140 -9 -356 -22 -480 -30
-124 -8 -315 -19 -425 -25 -353 -18 -564 -29 -820 -45 -137 -8 -272 -16 -299
-17 -29 -2 -51 -8 -54 -15 -5 -16 91 -17 258 -3 142 11 550 37 725 45 413 19
1336 77 1443 91 23 3 42 9 42 15 0 9 -11 9 -95 2z"/>
<path d="M6255 10163 c-74 -6 -81 -23 -9 -23 121 0 314 13 314 22 0 8 -202 8
-305 1z"/>
<path d="M5765 10134 c-17 -13 -17 -14 -1 -20 19 -7 66 10 66 25 0 13 -44 10
-65 -5z"/>
<path d="M6202 10092 c3 -14 17 -16 93 -14 100 3 128 9 119 23 -3 5 -53 9
-110 8 -91 -1 -105 -3 -102 -17z"/>
<path d="M5905 10069 c-49 -4 -170 -10 -267 -15 -139 -5 -178 -10 -178 -20 0
-17 27 -17 265 -4 307 18 325 20 325 36 0 15 -3 15 -145 3z"/>
<path d="M7952 7328 c2 -78 7 -113 16 -116 9 -3 12 24 12 112 0 98 -2 116 -15
116 -13 0 -15 -17 -13 -112z"/>
<path d="M5335 690 c28 -12 37 -12 30 0 -3 6 -16 10 -28 9 -21 0 -21 -1 -2 -9z"/>
<path d="M4745 680 c-3 -5 -1 -10 4 -10 6 0 11 5 11 10 0 6 -2 10 -4 10 -3 0
-8 -4 -11 -10z"/>
<path d="M4650 651 c0 -6 5 -13 10 -16 6 -3 10 1 10 9 0 9 -4 16 -10 16 -5 0
-10 -4 -10 -9z"/>
<path d="M5780 650 c-9 -6 -10 -10 -3 -10 6 0 15 5 18 10 8 12 4 12 -15 0z"/>
<path d="M4773 637 c4 -10 7 -25 7 -33 0 -8 5 -14 10 -14 16 0 12 30 -7 48
-16 16 -16 16 -10 -1z"/>
<path d="M4586 595 c-3 -8 -1 -15 4 -15 6 0 10 7 10 15 0 8 -2 15 -4 15 -2 0
-6 -7 -10 -15z"/>
<path d="M4460 590 c0 -7 -7 -10 -14 -7 -11 4 -13 1 -9 -10 4 -11 2 -14 -5 -9
-8 5 -10 1 -5 -10 5 -14 2 -16 -15 -12 -12 4 -25 2 -28 -3 -3 -5 4 -9 15 -9
12 0 21 -5 21 -11 0 -6 -7 -9 -15 -6 -8 4 -17 2 -20 -3 -3 -4 1 -11 7 -13 10
-4 10 -6 0 -6 -7 -1 -16 7 -20 17 -5 13 -8 11 -12 -13 -3 -16 -11 -29 -18 -27
-15 3 -16 -14 -2 -23 6 -3 10 -19 10 -36 0 -19 5 -29 15 -29 9 0 15 10 15 26
0 19 4 25 15 20 11 -4 15 2 15 20 0 14 5 24 13 23 33 -4 47 2 47 22 0 16 5 20
20 16 15 -4 20 0 20 14 0 11 10 24 23 29 12 5 18 9 14 9 -5 1 -1 8 8 17 19 20
12 32 -9 15 -8 -7 -23 -11 -32 -9 -13 2 -20 -5 -25 -27 l-7 -30 -1 32 c-1 29
-21 60 -21 33z"/>
<path d="M5692 570 c0 -14 2 -19 5 -12 2 6 2 18 0 25 -3 6 -5 1 -5 -13z"/>
<path d="M5650 561 c0 -25 6 -27 13 -6 4 8 2 17 -3 20 -6 4 -10 -3 -10 -14z"/>
<path d="M4310 441 c0 -12 -9 -29 -20 -38 -11 -10 -20 -23 -20 -31 0 -16 -29
-47 -52 -55 -10 -4 -18 -11 -18 -17 0 -6 4 -8 10 -5 5 3 7 0 4 -8 -3 -8 -1
-18 5 -22 6 -3 11 -17 11 -31 0 -13 5 -24 10 -24 14 0 13 47 -2 52 -7 3 -9 14
-4 32 5 20 11 26 22 22 10 -4 14 -1 12 6 -3 7 2 19 9 27 8 7 12 20 8 29 -4 12
-3 13 9 3 11 -9 12 -19 6 -37 -11 -27 1 -32 20 -9 11 13 15 13 21 3 6 -9 9 -4
9 15 0 15 -4 27 -9 27 -5 0 -11 11 -13 25 -3 13 -1 22 3 19 14 -9 10 6 -6 22
-13 14 -15 13 -15 -5z"/>
<path d="M5755 420 c-3 -5 -1 -10 4 -10 6 0 11 5 11 10 0 6 -2 10 -4 10 -3 0
-8 -4 -11 -10z"/>
<path d="M5790 391 c0 -6 4 -13 10 -16 6 -3 7 1 4 9 -7 18 -14 21 -14 7z"/>
<path d="M5810 348 c0 -11 32 -10 50 2 11 7 6 9 -17 7 -18 -1 -33 -5 -33 -9z"/>
<path d="M5873 338 c-25 -12 -32 -41 -8 -32 8 4 15 1 15 -5 0 -6 8 -11 19 -11
13 0 19 7 19 25 0 21 -3 23 -14 14 -12 -10 -13 -9 -8 5 7 18 7 18 -23 4z"/>
<path d="M4177 263 c-4 -3 -7 -11 -7 -17 0 -6 5 -5 12 2 6 6 9 14 7 17 -3 3
-9 2 -12 -2z"/>
<path d="M6033 213 c-7 -3 -13 -11 -13 -20 0 -12 2 -12 16 2 18 17 16 25 -3
18z"/>
<path d="M5960 200 c0 -5 7 -7 15 -4 8 4 15 8 15 10 0 2 -7 4 -15 4 -8 0 -15
-4 -15 -10z"/>
<path d="M4211 186 c-8 -10 -9 -16 -1 -21 5 -3 13 1 16 10 9 22 -1 29 -15 11z"/>
<path d="M4295 120 c-3 -5 -1 -10 4 -10 6 0 11 5 11 10 0 6 -2 10 -4 10 -3 0
-8 -4 -11 -10z"/>
<path d="M4230 70 c17 -33 17 -33 24 -22 3 5 -4 18 -16 28 -21 19 -21 19 -8
-6z"/>
</g>
</svg>
