<?xml version="1.0" standalone="no"?>
<!DOCTYPE svg PUBLIC "-//W3C//DTD SVG 20010904//EN"
 "http://www.w3.org/TR/2001/REC-SVG-20010904/DTD/svg10.dtd">
<svg version="1.0" xmlns="http://www.w3.org/2000/svg"
 width="1080.000000pt" height="1080.000000pt" viewBox="0 0 1080.000000 1080.000000"
 preserveAspectRatio="xMidYMid meet">

<g transform="translate(0.000000,1080.000000) scale(0.100000,-0.100000)"
fill="#000000" stroke="none">
<path d="M2244 10638 c1 -91 5 -164 9 -161 10 6 7 252 -3 297 -4 17 -7 -44 -6
-136z"/>
<path d="M2554 10771 c21 -21 33 -27 54 -23 l27 6 -31 8 c-17 4 -37 15 -44 23
-7 8 -17 15 -23 15 -6 0 2 -13 17 -29z"/>
<path d="M4030 10595 c0 -189 -1 -205 -17 -205 -10 0 -58 7 -108 15 -181 30
-414 16 -580 -36 -89 -27 -221 -92 -284 -140 l-48 -37 -75 72 c-68 66 -81 74
-139 87 -35 8 -102 13 -148 12 -72 -1 -93 -6 -148 -33 -39 -19 -91 -57 -128
-94 -56 -54 -64 -68 -75 -120 -8 -37 -9 -79 -4 -115 l7 -56 13 77 c7 42 17 85
23 97 29 53 112 73 193 46 52 -17 158 -74 158 -85 0 -4 -24 -12 -52 -19 -87
-22 -203 -88 -272 -155 -99 -97 -162 -203 -332 -561 -51 -108 -124 -179 -278
-270 -168 -100 -258 -207 -307 -368 -43 -138 -12 -314 67 -388 l26 -24 -8 55
c-12 78 -8 133 16 204 35 106 133 212 255 276 78 41 81 29 20 -83 -103 -191
-139 -357 -116 -539 23 -186 84 -327 222 -513 107 -143 141 -197 174 -275 60
-141 15 -240 -110 -240 -25 0 -45 -4 -45 -9 0 -16 109 -51 158 -51 26 1 65 7
87 15 22 8 43 15 48 15 24 0 -12 -110 -53 -162 -17 -20 -30 -44 -30 -53 0 -11
-30 -30 -87 -57 -87 -39 -143 -80 -143 -104 0 -6 -21 -15 -47 -19 -26 -4 -110
-29 -188 -57 -92 -32 -188 -58 -280 -74 -188 -33 -203 -38 -277 -86 -76 -50
-481 -452 -592 -588 -43 -52 -85 -100 -94 -107 -13 -9 -40 -9 -122 2 -129 18
-180 18 -253 4 l-57 -12 0 -2918 0 -2919 1143 0 1144 0 16 88 c52 274 63 571
39 1057 -7 143 -17 381 -22 529 -11 292 -21 375 -80 682 -22 111 -51 270 -64
355 -36 217 -100 448 -212 760 -101 283 -125 402 -189 937 -48 400 -101 578
-247 821 -164 274 -295 397 -547 513 -109 51 -180 65 -358 74 -79 4 -146 10
-149 15 -8 13 82 116 305 348 213 220 339 334 412 372 21 10 78 23 131 29 150
17 199 28 372 85 90 30 170 57 179 60 11 5 14 -5 14 -47 0 -135 83 -246 222
-298 94 -36 262 -27 595 35 185 33 322 45 532 45 324 0 523 -46 691 -161 251
-171 381 -316 492 -550 44 -92 52 -120 70 -241 12 -75 21 -149 20 -165 l-1
-28 -8 25 c-4 14 -29 93 -55 175 -50 160 -89 248 -124 279 -19 17 -24 18 -46
6 -14 -7 -27 -21 -30 -31 -4 -12 -20 -20 -53 -25 -148 -20 -271 -59 -372 -116
-162 -91 -380 -296 -483 -453 -53 -83 -219 -371 -274 -478 -20 -38 -42 -204
-43 -317 0 -97 16 -311 26 -342 10 -32 27 -20 20 14 -4 18 -9 114 -12 213 -6
157 -4 194 14 287 19 96 29 122 103 260 178 335 235 415 415 588 125 121 228
193 339 239 78 33 250 81 287 81 10 0 36 9 58 20 l39 20 17 -31 c9 -18 53
-142 99 -278 275 -819 364 -1055 618 -1646 66 -154 128 -306 139 -338 50 -160
-6 -329 -166 -495 -113 -119 -289 -234 -421 -275 -83 -27 -221 -46 -405 -57
-96 -6 -191 -12 -209 -13 -39 -2 -44 3 -119 140 -80 147 -335 463 -373 463
-16 0 4 -29 80 -115 88 -99 142 -172 115 -156 -10 7 -55 38 -99 71 -44 32 -82
57 -84 54 -2 -2 -2 -5 0 -7 2 -2 56 -46 119 -99 130 -109 158 -141 228 -259
72 -121 73 -122 179 -118 l88 4 18 -55 c10 -30 30 -84 43 -120 l25 -65 -21
-75 c-56 -203 -92 -450 -70 -490 19 -35 139 -190 212 -272 82 -94 114 -144
130 -201 25 -96 -60 -264 -227 -447 -53 -58 -167 -193 -253 -300 -220 -274
-293 -344 -486 -471 l-160 -104 43 -3 c49 -4 91 20 236 133 151 118 247 222
457 500 85 112 313 355 333 355 23 0 84 -80 105 -139 88 -232 55 -519 -85
-766 -25 -43 -45 -80 -45 -82 0 -2 9 -3 19 -3 15 0 34 29 80 122 76 153 101
246 108 406 3 67 9 122 13 122 4 0 32 -11 62 -25 55 -25 56 -25 127 -10 83 17
117 19 125 6 4 -5 9 -43 12 -83 5 -58 3 -81 -10 -105 -22 -43 -20 -127 3 -196
26 -75 35 -156 23 -200 -10 -35 -9 -37 14 -37 22 0 24 4 26 48 3 89 -3 137
-29 225 -21 75 -24 98 -17 145 l9 57 95 6 c52 4 145 10 205 14 97 6 132 3 295
-23 102 -17 217 -33 255 -37 767 -62 855 -71 1022 -105 57 -11 117 -31 160
-54 84 -44 208 -156 248 -225 l30 -51 1425 1 1425 0 -95 35 c-155 58 -1345
474 -1355 474 -12 0 -410 143 -673 241 -162 61 -423 154 -580 208 -348 120
-976 343 -1127 401 -60 23 -193 71 -295 105 -102 35 -252 88 -334 119 l-149
56 -51 -14 c-65 -17 -245 -82 -268 -96 -22 -13 -31 -13 -23 0 4 6 3 10 -2 9
-4 -1 -19 2 -33 8 -24 10 -24 10 10 21 94 29 204 57 290 73 94 17 409 121 588
194 l92 37 83 -35 c183 -79 467 -185 732 -273 565 -188 1394 -470 1865 -634
129 -45 451 -155 715 -245 264 -89 635 -216 825 -280 190 -65 378 -128 418
-141 l72 -22 0 22 c0 21 -20 30 -217 100 -120 43 -254 90 -298 106 -136 48
-559 194 -1015 350 -239 81 -525 180 -635 218 -110 39 -310 108 -445 155 -135
47 -333 117 -440 155 -107 38 -415 144 -685 235 -444 150 -847 296 -862 311
-4 3 -4 7 -2 9 13 10 462 187 475 187 9 0 77 -23 152 -51 210 -78 861 -292
1107 -363 274 -80 592 -166 610 -166 34 0 191 66 291 122 60 33 168 83 239
110 72 28 168 67 214 89 46 21 85 39 87 39 1 0 0 -42 -3 -94 -5 -86 -4 -97 18
-133 13 -21 31 -44 40 -51 15 -10 16 -18 7 -49 -9 -33 -8 -38 14 -54 30 -24
221 -91 323 -115 96 -23 342 -25 415 -5 63 18 140 58 272 140 216 135 254 173
251 251 -3 57 -49 270 -70 320 -33 82 -121 135 -291 177 -92 23 -128 27 -262
27 -215 0 -321 -31 -439 -128 l-55 -45 -42 41 c-24 23 -44 51 -46 62 -2 17
-14 23 -55 30 -50 8 -53 10 -59 45 -10 56 -21 69 -66 79 -111 27 -180 46 -263
73 -49 16 -114 32 -143 36 -32 3 -56 12 -59 20 -8 20 -57 43 -91 43 -26 0
-124 27 -232 64 -93 32 -154 46 -194 46 -32 0 -48 6 -65 24 -12 13 -22 30 -21
37 4 29 -2 39 -61 105 -34 37 -79 94 -100 127 -36 56 -58 121 -46 134 5 5 134
-32 357 -102 41 -13 111 -33 155 -45 44 -12 168 -48 275 -80 107 -32 274 -79
370 -105 509 -136 525 -138 666 -124 127 13 528 80 747 126 l177 36 0 248 0
249 -22 5 c-13 3 -93 16 -178 30 -290 48 -435 76 -720 141 -157 36 -293 67
-302 70 -16 5 -18 19 -18 101 0 94 0 95 23 90 45 -11 1181 -177 1211 -177 4 0
6 10 4 22 -3 21 -11 24 -122 35 -142 15 -1013 141 -1097 158 -24 6 -26 10 -42
133 -31 238 -77 372 -144 415 -21 14 -155 64 -298 111 -215 71 -270 86 -322
86 -48 0 -119 16 -300 69 -181 52 -261 70 -333 76 -68 5 -102 12 -121 26 -51
36 -123 61 -181 63 -52 1 -60 -2 -92 -33 -30 -29 -38 -48 -57 -130 -12 -53
-29 -106 -37 -118 -10 -17 -13 -44 -9 -105 2 -46 8 -93 12 -104 6 -20 2 -22
-47 -27 -29 -3 -56 -2 -59 1 -4 4 4 42 17 85 13 43 35 146 49 230 31 181 49
243 77 258 15 8 174 10 543 8 453 -4 524 -2 540 11 64 53 83 226 64 585 -9
174 -14 504 -14 1000 0 407 -4 764 -9 793 l-9 53 39 -3 39 -3 6 -135 c3 -74 7
-136 8 -137 0 -2 19 -3 42 -3 l40 0 -6 -267 c-3 -148 -10 -344 -16 -438 -14
-257 -29 -816 -29 -1126 0 -333 12 -421 63 -448 15 -7 188 -13 528 -18 l507
-8 20 -25 20 -25 259 -5 c218 -5 263 -9 288 -23 35 -20 65 -21 134 -5 32 7 51
17 51 26 0 9 -6 12 -17 7 -41 -16 -132 -18 -155 -3 -18 12 -76 16 -267 21
-166 4 -248 10 -255 18 -8 9 72 10 342 5 l352 -6 0 155 0 155 -871 0 -871 0 6
53 c3 28 10 212 16 407 17 595 19 639 34 820 17 191 46 1119 46 1481 l0 227
23 5 c30 8 280 44 831 122 458 65 764 113 779 122 4 2 7 55 7 117 l0 113 -97
-17 c-54 -10 -168 -27 -253 -39 -85 -12 -218 -31 -295 -42 -77 -11 -205 -29
-285 -39 -437 -57 -687 -91 -702 -96 -17 -5 -18 62 -18 1305 0 1242 -1 1311
-17 1311 -17 0 -18 -68 -15 -1310 l3 -1309 -21 -21 c-11 -11 -25 -18 -30 -15
-6 4 -10 492 -10 1331 l0 1324 -21 0 c-21 0 -22 -2 -16 -102 9 -130 8 -2535 0
-2840 l-6 -226 -28 -4 c-43 -7 -51 3 -37 43 14 41 14 -62 11 1697 l-3 1432
-27 0 -28 0 3 -729 3 -730 -28 9 c-15 4 -125 38 -243 75 -433 136 -658 198
-1135 312 -148 35 -497 120 -775 187 -278 68 -602 144 -720 170 -118 25 -323
68 -455 96 -132 28 -402 89 -600 135 -314 73 -439 99 -572 121 l-33 5 0 174
c0 168 -1 175 -20 175 -19 0 -20 -7 -20 -249 l0 -249 -87 28 c-49 15 -104 31
-123 36 l-35 10 -3 212 c-2 179 -5 212 -17 212 -13 0 -15 -31 -15 -205z m368
-209 c62 -22 261 -65 354 -77 104 -13 706 -132 973 -193 110 -25 398 -93 640
-151 242 -59 514 -124 605 -146 297 -70 1037 -267 1215 -322 61 -19 162 -49
225 -67 63 -17 192 -54 285 -82 94 -28 180 -53 193 -55 l22 -5 0 -850 0 -849
55 6 55 7 0 -156 0 -156 -50 0 -50 0 -1 93 c-1 79 -2 87 -11 57 -6 -19 -13
-63 -15 -97 l-5 -63 -38 0 -39 0 -3 315 -3 315 -27 26 c-44 44 -91 57 -228 60
-101 2 -146 -2 -235 -21 -132 -29 -437 -87 -630 -121 -77 -14 -277 -54 -445
-89 -168 -35 -374 -75 -459 -89 -234 -39 -250 -54 -258 -250 -9 -196 13 -900
52 -1701 8 -165 19 -401 25 -525 15 -352 20 -408 36 -421 11 -9 100 -11 377
-5 199 3 419 9 489 13 l126 6 -29 -139 c-46 -214 -65 -285 -99 -367 l-32 -76
-52 -5 c-28 -3 -190 -14 -361 -26 -170 -11 -366 -25 -435 -30 -69 -6 -264 -19
-435 -30 -170 -11 -391 -27 -490 -35 -360 -28 -452 -35 -577 -41 l-128 -7 -26
59 c-37 84 -198 488 -249 624 -44 118 -118 397 -130 485 -20 160 -69 439 -86
495 -51 163 -191 350 -365 486 l-81 63 -11 70 c-7 38 -12 145 -12 238 0 92 -5
188 -11 212 -5 24 -6 48 -2 52 12 12 199 -34 381 -92 181 -58 241 -65 288 -32
52 37 85 96 108 195 28 119 35 131 112 203 l64 61 0 66 c0 72 8 85 64 103 39
13 56 46 56 114 0 49 4 57 49 110 67 78 119 160 127 199 6 30 2 38 -58 100
-67 69 -102 128 -145 241 l-24 65 25 18 c33 25 81 104 102 170 27 80 27 46 1
-105 -20 -116 -21 -137 -9 -142 38 -14 143 160 177 294 9 36 19 96 22 134 5
55 8 65 16 51 21 -37 8 -268 -18 -336 -11 -28 20 -22 44 8 59 75 96 272 88
462 -3 72 -3 132 2 132 4 0 18 -11 30 -24 19 -20 23 -39 29 -132 6 -100 2
-200 -11 -249 -3 -11 -6 -21 -6 -23 -1 -2 -6 0 -11 3 -8 5 -8 11 -1 19 6 7 9
15 7 17 -2 2 -7 35 -11 74 -3 38 -8 72 -11 74 -2 2 -4 -47 -4 -110 0 -63 -2
-132 -5 -154 -5 -40 -4 -40 6 5 17 72 32 75 25 5 -3 -33 -9 -72 -12 -87 -9
-40 12 -35 25 5 20 60 41 262 41 392 0 134 -26 332 -54 412 -42 120 -229 478
-324 621 -73 111 -188 231 -270 283 -130 82 -349 205 -465 259 l-116 55 -1 58
c0 31 2 57 4 57 2 0 22 -6 44 -14z m427 -45 c3 -5 1 -12 -5 -16 -5 -3 -10 -1
-10 4 0 14 -27 14 -32 0 -2 -7 -9 -5 -17 5 -12 14 -9 16 22 16 20 0 38 -4 42
-9z m62 -24 c4 -7 0 -8 -11 -4 -10 4 -22 7 -27 7 -5 0 -9 4 -9 9 0 12 38 2 47
-12z m-396 -634 c-23 -27 -49 -57 -59 -68 -9 -11 -39 -46 -65 -77 -27 -32 -55
-58 -63 -58 -20 0 -18 4 21 57 94 126 120 156 149 174 54 33 60 21 17 -28z
m269 -333 c0 -18 -37 -90 -46 -90 -6 0 6 68 17 98 10 26 29 21 29 -8z m-180
-3 c0 -7 -4 -17 -8 -22 -5 -6 -14 -29 -21 -52 -7 -27 -18 -43 -27 -43 -10 0
-13 -6 -10 -18 4 -12 -2 -25 -16 -38 -13 -10 -18 -12 -12 -4 6 8 14 31 18 50
10 55 48 140 63 140 7 0 13 -6 13 -13z m658 -36 c15 -20 32 -42 39 -48 26 -29
73 -122 83 -167 14 -65 6 -69 -15 -7 -20 62 -79 154 -137 215 -25 25 -43 48
-41 50 11 11 47 -11 71 -43z m-1458 -22 c0 -5 -4 -9 -10 -9 -5 0 -10 -4 -10
-10 0 -8 -74 -135 -86 -149 -2 -2 -7 -1 -10 2 -11 11 47 157 68 171 20 15 48
11 48 -5z m500 14 c1 -32 -59 -193 -78 -213 -21 -21 -24 -22 -18 -5 13 36 36
156 36 184 0 15 3 31 7 34 9 9 53 9 53 0z m-194 -101 c-17 -16 -18 -16 -5 5 7
12 15 20 18 17 3 -2 -3 -12 -13 -22z m-542 -74 c-97 -87 -130 -81 -42 7 44 42
55 49 66 38 11 -10 7 -18 -24 -45z m-94 15 c-1 -13 -103 -83 -122 -83 -25 0
-35 47 -15 67 15 15 15 14 10 -5 -7 -29 8 -28 53 3 35 24 74 33 74 18z m2037
-74 c23 -56 30 -124 14 -134 -6 -3 -27 25 -47 62 -20 38 -47 82 -59 98 l-23
31 47 -2 c46 -2 46 -2 68 -55z m-1484 -9 c-3 -12 -8 -19 -11 -16 -5 6 5 36 12
36 2 0 2 -9 -1 -20z m658 -157 c-6 -87 -13 -167 -17 -179 -4 -15 -19 -23 -61
-32 -31 -6 -58 -10 -60 -8 -3 2 14 46 35 97 22 52 52 135 67 184 14 50 29 97
32 105 13 35 14 -17 4 -167z m230 94 c12 -69 16 -313 5 -324 -6 -6 -76 16 -92
28 -8 6 -4 32 12 89 13 43 29 126 35 184 7 58 16 103 20 100 4 -2 13 -37 20
-77z m-2490 49 c10 6 12 -7 3 -30 -3 -9 -13 -16 -21 -16 -12 0 -14 -7 -10 -29
5 -21 2 -31 -10 -35 -12 -5 -13 -4 -5 7 7 8 9 17 5 20 -3 4 -12 -1 -20 -11 -7
-9 -2 5 12 32 14 27 25 56 26 65 0 10 2 12 6 3 2 -6 9 -10 14 -6z m83 -23 c7
-17 -12 -36 -27 -26 -5 3 -13 -1 -18 -8 -13 -21 -12 7 1 32 13 23 36 25 44 2z
m106 -183 c0 -5 -4 -10 -10 -10 -5 0 -10 5 -10 10 0 6 5 10 10 10 6 0 10 -4
10 -10z m70 -38 c0 -62 -94 -111 -120 -63 -16 32 -13 43 10 31 15 -8 27 -6 55
12 19 13 35 29 35 36 0 6 5 12 10 12 6 0 10 -12 10 -28z m2386 -174 c-3 -101
-13 -239 -22 -307 -12 -94 -14 -133 -5 -160 6 -20 17 -64 26 -99 22 -93 57
-159 125 -234 33 -36 60 -74 60 -83 0 -28 -30 -76 -92 -148 -70 -82 -78 -100
-78 -178 0 -58 0 -59 -42 -85 -60 -37 -68 -50 -68 -116 l0 -58 -65 -51 c-80
-63 -111 -114 -130 -213 -18 -91 -33 -124 -77 -161 -30 -25 -37 -27 -91 -21
-33 3 -141 33 -241 66 -175 58 -357 97 -392 83 -12 -4 -15 -15 -11 -40 8 -48
-21 -126 -79 -213 -45 -66 -74 -130 -59 -130 2 0 14 19 26 43 24 47 119 188
134 199 32 24 35 10 34 -210 l-1 -218 -79 53 c-75 50 -115 65 -285 112 -22 6
-81 36 -130 67 -187 119 -313 194 -397 235 -81 41 -87 46 -82 69 3 14 43 87
88 163 62 104 83 133 85 115 6 -47 12 -53 28 -29 51 72 104 290 104 427 0 46
3 84 8 84 15 0 144 -29 149 -33 2 -3 11 -54 18 -114 28 -218 57 -262 271 -403
65 -43 122 -76 126 -74 4 3 8 13 8 24 0 12 -33 38 -102 81 -123 77 -210 156
-231 207 -17 42 -32 120 -42 218 -6 55 -5 62 13 66 17 5 39 64 28 75 -2 2 -20
-4 -39 -13 -35 -17 -37 -17 -74 8 -95 62 -177 171 -234 309 -16 41 -41 92 -54
115 -34 58 -32 96 16 240 63 188 115 254 202 254 51 0 125 -37 148 -74 32 -51
59 -135 66 -198 l6 -60 24 31 c14 17 28 31 33 31 4 0 15 -44 25 -97 10 -54 27
-126 40 -159 22 -61 129 -234 145 -234 11 0 17 19 25 83 4 32 11 57 15 57 4 0
13 -13 20 -30 15 -36 28 -39 34 -7 17 91 26 143 35 216 8 65 20 104 51 165 40
80 158 251 167 243 2 -3 -16 -46 -42 -96 -53 -107 -47 -120 35 -75 77 42 174
136 232 225 28 43 58 80 67 83 9 2 38 9 64 16 26 7 50 11 52 8 9 -8 -26 -115
-59 -183 -36 -73 -37 -85 -6 -85 18 0 125 133 180 224 21 35 26 38 58 33 47
-8 82 -33 82 -60 0 -12 9 -37 20 -55 19 -30 19 -35 5 -62 -8 -16 -15 -36 -15
-45 0 -14 -6 -15 -32 -8 -56 14 -159 6 -220 -17 -32 -12 -79 -41 -108 -67 -47
-42 -50 -47 -35 -63 15 -17 17 -17 39 5 27 26 137 85 161 85 12 0 15 -13 15
-60 0 -50 3 -60 18 -60 10 0 13 -3 6 -8 -6 -4 -13 -14 -17 -24 -3 -9 -21 -19
-39 -23 -18 -4 -41 -12 -51 -17 -18 -9 -18 -10 2 -25 12 -8 21 -22 20 -31 -3
-34 2 -40 41 -56 37 -15 40 -19 40 -56 0 -34 4 -40 25 -46 36 -9 40 -1 19 35
-17 29 -17 32 1 68 15 30 19 64 21 162 2 137 12 163 53 141 18 -9 21 -17 16
-39 -4 -20 0 -32 15 -46 19 -17 22 -17 36 -3 18 18 11 38 -12 38 -9 0 -14 7
-12 18 3 11 12 16 27 15 25 -3 61 13 61 27 0 6 -16 10 -35 10 -19 0 -35 2 -35
4 0 2 18 36 41 75 39 69 55 126 74 284 13 100 18 39 11 -135z m3434 -703 c7
-8 21 -15 31 -15 25 0 32 -15 24 -51 -9 -39 -36 -35 -47 7 -4 17 -15 37 -23
44 -17 14 -20 30 -6 30 5 0 14 -7 21 -15z m-156 -572 c3 -175 6 -532 6 -793 0
-261 4 -684 9 -940 9 -392 9 -493 2 -572 -1 -5 -56 -8 -123 -8 -68 0 -278 -7
-468 -15 -190 -8 -483 -18 -651 -22 l-306 -6 -6 24 c-4 13 -7 112 -7 219 0
200 -22 842 -40 1145 -23 416 -32 703 -26 875 3 101 9 187 14 191 8 7 531 87
777 119 88 11 250 34 360 50 239 36 333 47 401 49 l51 1 7 -317z m691 -361
c-3 -9 -18 -12 -47 -10 -40 3 -43 5 -50 43 -5 22 -7 78 -6 125 l3 85 50 5 50
5 3 -119 c1 -66 0 -126 -3 -134z m-6515 44 c0 -51 -5 -117 -10 -146 -6 -29 -8
-55 -5 -58 3 -3 41 12 84 32 46 22 102 40 133 43 52 5 56 3 187 -72 183 -105
491 -316 491 -337 0 -4 -51 -5 -112 -2 -147 8 -351 -8 -618 -46 -374 -54 -558
-37 -677 64 -52 44 -87 205 -48 220 8 3 15 11 15 19 0 26 46 57 145 97 54 22
128 58 163 80 55 35 82 47 82 37 0 -1 -4 -17 -9 -35 -12 -42 6 -43 51 -3 33
29 108 165 108 196 0 9 5 13 10 10 6 -3 10 -48 10 -99z m384 -68 c11 -93 11
-92 -25 -71 -52 30 -54 38 -22 82 15 23 31 41 34 41 3 0 9 -24 13 -52z m92
-135 c-3 -3 -15 2 -26 12 -21 19 -19 45 4 74 9 11 13 4 20 -33 4 -26 6 -50 2
-53z m359 -233 c66 -42 136 -87 155 -99 l35 -23 -40 5 c-27 3 -51 15 -73 35
-19 17 -96 73 -173 123 -76 51 -139 94 -139 96 0 7 106 -55 235 -137z m4604
-1935 c42 -21 40 -39 -3 -31 -19 4 -66 1 -106 -5 -39 -6 -74 -9 -77 -6 -9 9
18 48 40 58 29 12 109 4 146 -16z m-139 -526 c152 -66 502 -176 795 -249 l150
-38 3 -77 c3 -70 1 -76 -15 -71 -131 38 -214 47 -278 29 -27 -7 -203 -49 -390
-94 -361 -86 -397 -97 -460 -139 -22 -15 -45 -30 -52 -34 -7 -4 -24 6 -40 22
-39 41 -65 52 -105 46 -24 -4 -52 2 -95 20 -34 14 -137 46 -230 71 -207 56
-310 89 -500 161 l-148 55 -80 -11 c-74 -11 -226 -47 -302 -71 -18 -6 -33 -16
-33 -23 0 -14 1 -14 217 35 151 34 199 27 453 -68 129 -48 285 -98 390 -124
l175 -44 -70 -7 c-73 -6 -167 -37 -294 -95 -41 -18 -82 -33 -90 -32 -9 1 -24
-1 -33 -5 -19 -9 -190 44 -242 74 -17 10 -76 35 -131 55 -108 39 -189 70 -304
116 -40 16 -84 29 -97 29 -12 0 -26 5 -30 11 -4 7 0 9 14 5 11 -4 23 -2 27 4
3 5 2 10 -4 10 -5 0 -11 12 -13 28 -3 24 -8 27 -44 30 -29 2 -47 -2 -58 -14
-14 -14 -22 -15 -43 -5 -21 10 -32 8 -65 -8 -21 -10 -47 -17 -58 -14 -25 7
-135 -27 -274 -83 -59 -24 -110 -44 -111 -44 -2 0 -27 43 -55 96 -55 102 -148
205 -218 240 -40 21 -52 32 -52 52 0 9 23 12 83 12 45 0 244 11 442 25 198 14
495 34 660 45 165 11 363 27 440 35 77 8 246 21 375 30 264 17 600 44 615 50
34 12 90 0 175 -36z m-2663 -312 c68 -71 105 -129 90 -143 -2 -2 -26 10 -53
26 -45 28 -47 29 -19 4 17 -14 44 -32 62 -40 35 -15 110 -126 149 -222 37 -89
35 -92 -60 -83 l-60 6 -41 120 c-23 66 -52 142 -63 168 -12 27 -22 54 -22 61
0 6 -15 41 -34 76 -39 75 -51 110 -38 110 5 0 45 -37 89 -83z m2305 -421 c18
-8 45 -17 60 -20 35 -8 88 -53 88 -76 0 -30 -17 -32 -45 -6 -40 37 -79 39
-217 12 -179 -35 -263 -73 -543 -246 -77 -48 -165 -100 -195 -115 -66 -33
-190 -77 -190 -66 0 16 93 95 243 206 284 210 387 262 568 290 57 9 118 20
134 25 45 12 61 11 97 -4z m75 -99 c13 -13 -3 -16 -60 -10 -74 8 -76 27 -2 21
30 -3 58 -8 62 -11z m-32 -42 c125 -19 277 -53 330 -72 72 -26 205 -96 205
-108 0 -60 164 -347 239 -419 18 -17 27 -34 24 -44 -4 -10 -2 -13 5 -8 6 3 13
2 17 -3 3 -6 -13 -22 -36 -37 -51 -32 -52 -31 -99 85 -44 108 -171 359 -196
386 -31 34 -82 45 -226 52 -121 6 -225 -5 -268 -28 -31 -16 19 -21 72 -8 83
21 339 2 387 -28 25 -16 142 -251 199 -400 36 -93 36 -93 21 -93 -14 0 -56 46
-144 156 -70 88 -70 88 -272 164 -45 17 -98 42 -118 55 -36 25 -65 32 -65 17
0 -28 155 -108 285 -147 62 -19 100 -37 123 -58 40 -39 41 -49 1 -35 -19 6
-68 9 -124 5 -51 -3 -137 -2 -191 3 -157 14 -164 -24 -10 -51 51 -8 78 -8 106
0 21 6 71 14 112 17 70 6 79 5 128 -22 28 -15 72 -51 97 -79 50 -55 133 -161
133 -168 0 -3 -15 -11 -34 -17 -32 -10 -37 -9 -86 28 -71 54 -104 61 -271 63
-224 2 -350 -28 -619 -149 -151 -68 -194 -81 -365 -116 -66 -14 -133 -29 -150
-34 -37 -12 -607 -233 -690 -268 -33 -15 -186 -69 -340 -121 -154 -52 -306
-106 -337 -119 -37 -16 -94 -28 -160 -35 -133 -13 -299 -36 -320 -44 -11 -5
-19 2 -26 24 -6 17 -31 59 -55 93 -65 91 -138 233 -202 392 -30 77 -54 140
-53 141 2 1 32 9 68 19 220 58 565 303 715 507 l68 92 41 -48 42 -48 264 17
c301 20 628 57 744 86 89 22 178 68 379 194 172 108 312 183 385 207 71 23
140 24 267 4z m-2218 -162 c28 -38 65 -81 82 -97 17 -17 31 -37 31 -46 0 -44
-167 -250 -296 -364 -239 -213 -484 -331 -716 -343 -53 -3 -108 -3 -122 1 -25
6 -25 8 -19 65 5 56 3 65 -40 153 -71 146 -80 133 97 146 219 16 377 60 521
146 68 41 180 126 240 183 45 42 136 168 152 208 3 8 8 15 12 15 3 0 29 -30
58 -67z m2983 -383 c0 -15 -10 -3 -45 55 -17 28 -16 28 13 -5 17 -19 31 -42
32 -50z m90 -160 c0 -5 -5 -10 -11 -10 -5 0 -7 5 -4 10 3 6 8 10 11 10 2 0 4
-4 4 -10z m269 -24 c13 -16 5 -46 -13 -46 -7 0 -21 6 -31 14 -16 12 -17 16 -6
30 16 20 35 20 50 2z m55 -145 c6 -10 -41 -21 -88 -21 l-31 1 25 14 c28 16 86
20 94 6z m542 -21 l27 -11 -33 -28 c-22 -18 -41 -26 -57 -23 -28 5 -28 7 -2
43 23 32 26 33 65 19z m-749 -54 c-3 -7 -1 -18 5 -24 8 -8 3 -15 -16 -23 -22
-11 -29 -10 -43 4 -15 14 -13 17 18 36 40 25 43 25 36 7z m36 -17 c-9 -9 -12
-7 -10 9 1 14 5 18 11 12 7 -7 6 -14 -1 -21z m815 9 c-3 -7 -15 -14 -27 -14
-12 -1 -25 -5 -29 -9 -4 -5 1 -5 10 -2 10 3 20 1 24 -4 3 -6 12 -2 21 10 18
27 33 27 33 1 0 -13 -10 -24 -26 -31 -29 -10 -64 -4 -64 12 0 6 -6 7 -12 3 -7
-4 -2 5 11 19 25 27 66 37 59 15z m-1123 -8 c-3 -5 -16 -10 -28 -10 -18 0 -19
2 -7 10 20 13 43 13 35 0z m-164 -24 c-6 -8 -24 -16 -39 -19 l-27 -5 24 19
c28 23 60 27 42 5z m32 -17 c-18 -11 -38 -19 -44 -17 -7 2 3 12 22 21 47 23
61 21 22 -4z m574 -5 c-3 -3 -12 -4 -19 -1 -8 3 -5 6 6 6 11 1 17 -2 13 -5z
m-37 -29 c0 -16 -27 -32 -37 -21 -7 7 16 36 28 36 5 0 9 -7 9 -15z m-4089 -59
c12 -34 35 -89 51 -124 17 -35 28 -65 27 -66 -2 -2 -44 12 -94 32 -49 19 -137
51 -195 71 -114 39 -118 44 -101 108 l10 38 140 1 140 1 22 -61z m4306 25 c13
-21 8 -31 -15 -31 -10 0 -13 7 -9 21 5 18 3 18 -11 7 -15 -12 -16 -11 -3 5 17
22 23 21 38 -2z m377 -14 c-21 -12 -29 -2 -13 16 10 11 16 12 21 4 4 -7 0 -16
-8 -20z m-1286 3 c9 -4 -2 -13 -31 -24 -35 -13 -50 -14 -73 -6 l-29 11 40 19
c38 17 62 17 93 0z m221 -24 c9 -11 5 -16 -20 -25 -41 -14 -39 -14 -39 8 0 30
39 41 59 17z m267 0 c3 -8 14 -13 25 -11 29 6 14 -11 -20 -23 -37 -13 -62 8
-41 33 16 19 29 19 36 1z m-375 -36 c17 0 9 -19 -12 -30 -15 -8 -24 -8 -33 -1
-8 6 -21 9 -30 5 -9 -3 -16 -2 -16 4 0 13 50 32 68 26 8 -2 18 -4 23 -4z m623
4 c13 -5 14 -9 5 -20 -15 -18 -49 -18 -49 -1 0 25 15 32 44 21z m-310 -98
c-10 -8 -21 -12 -24 -10 -5 6 21 24 34 24 6 0 1 -6 -10 -14z m81 -6 c-3 -5
-11 -10 -16 -10 -6 0 -7 5 -4 10 3 6 11 10 16 10 6 0 7 -4 4 -10z m85 -60 c0
-10 -32 -30 -49 -30 -18 0 -12 28 7 33 30 8 42 7 42 -3z m-3360 -453 c0 -18
-2 -19 -10 -7 -13 20 -13 43 0 35 6 -3 10 -16 10 -28z"/>
<path d="M5430 8241 c0 -5 5 -13 10 -16 6 -3 10 -2 10 4 0 5 -4 13 -10 16 -5
3 -10 2 -10 -4z"/>
<path d="M4763 8513 c-32 -6 -29 -23 5 -23 15 0 46 -9 70 -20 31 -14 42 -16
42 -6 0 33 -65 60 -117 49z"/>
<path d="M3361 8458 c-23 -13 -65 -77 -56 -87 3 -2 21 14 41 37 19 23 41 42
48 42 7 0 36 -46 64 -103 48 -97 51 -105 41 -142 -6 -21 -24 -51 -40 -67 l-28
-29 25 -9 c21 -8 23 -14 17 -37 -19 -67 10 -163 50 -171 23 -5 22 22 -3 56
-19 25 -20 33 -9 81 8 38 8 55 0 60 -7 5 -4 20 9 46 38 78 37 90 -28 215 -64
123 -79 135 -131 108z"/>
<path d="M3281 8271 c-22 -58 -32 -111 -22 -128 7 -14 14 -1 33 60 12 42 26
77 30 77 7 0 42 -88 54 -135 3 -14 10 -25 15 -25 16 0 10 68 -11 124 -20 51
-22 54 -55 53 -27 -1 -36 -6 -44 -26z"/>
<path d="M3580 8100 c-9 -6 -10 -10 -3 -10 6 0 15 5 18 10 8 12 4 12 -15 0z"/>
<path d="M3340 7975 c0 -9 10 -39 21 -66 l21 -49 56 0 c63 0 64 7 2 18 -41 7
-44 10 -59 56 -16 49 -41 74 -41 41z"/>
<path d="M4696 7264 c-10 -27 -7 -54 8 -54 17 0 24 17 18 47 -5 27 -17 30 -26
7z"/>
<path d="M4787 7233 c-14 -13 -6 -23 17 -23 38 0 86 12 86 21 0 10 -93 12
-103 2z"/>
<path d="M6265 3718 c-117 -20 -148 -36 -125 -63 21 -25 116 -49 148 -37 33
13 94 27 105 24 4 -1 17 2 27 8 16 8 19 17 14 38 -14 59 -11 58 -169 30z m121
-27 c-4 -6 -14 -11 -22 -11 -12 0 -13 4 -3 21 7 14 14 18 21 11 6 -6 7 -15 4
-21z m-123 -18 c45 -6 50 -21 5 -16 -75 9 -98 14 -98 25 0 6 10 8 28 3 15 -3
44 -9 65 -12z"/>
<path d="M6520 3661 c-43 -24 -110 -51 -153 -62 -27 -6 -45 -15 -40 -20 4 -4
46 -11 92 -15 70 -6 86 -5 96 9 6 8 26 17 45 19 18 2 35 9 38 16 3 9 -3 11
-21 6 -14 -3 -43 0 -64 7 l-38 13 37 8 c22 4 49 3 64 -2 33 -13 45 -3 20 16
-22 15 -53 17 -76 5z m-50 -71 c11 -7 7 -10 -17 -10 -17 0 -35 5 -38 10 -8 13
35 13 55 0z"/>
<path d="M6776 3574 c-109 -22 -179 -65 -149 -95 26 -26 84 -28 154 -6 l68 21
-32 27 c-35 30 -35 33 6 43 25 6 28 4 22 -13 -9 -29 27 -47 64 -31 16 6 39 8
53 5 33 -8 44 9 27 41 -11 22 -18 24 -78 23 -36 -1 -97 -8 -135 -15z m-6 -60
c0 -8 -9 -14 -22 -13 -13 0 -17 3 -10 6 6 2 12 11 12 19 0 9 5 12 10 9 6 -3
10 -13 10 -21z m-65 -4 c4 -6 -5 -10 -19 -10 -14 0 -26 5 -26 10 0 6 9 10 19
10 11 0 23 -4 26 -10z"/>
<path d="M2312 10760 c0 -19 2 -27 5 -17 2 9 2 25 0 35 -3 9 -5 1 -5 -18z"/>
<path d="M2729 10647 l-4 -98 -54 81 c-52 78 -89 121 -54 62 37 -61 126 -202
128 -202 7 0 3 201 -4 225 -7 24 -10 10 -12 -68z"/>
<path d="M2241 10348 c0 -62 2 -108 4 -103 8 23 11 215 3 215 -4 0 -8 -51 -7
-112z"/>
<path d="M10008 10223 c7 -3 16 -2 19 1 4 3 -2 6 -13 5 -11 0 -14 -3 -6 -6z"/>
<path d="M9848 10183 c7 -3 16 -2 19 1 4 3 -2 6 -13 5 -11 0 -14 -3 -6 -6z"/>
<path d="M0 8146 c0 -2 7 -7 16 -10 8 -3 12 -2 9 4 -6 10 -25 14 -25 6z"/>
<path d="M479 8107 c4 -4 37 -4 72 2 l64 9 -72 -1 c-39 -1 -68 -6 -64 -10z"/>
<path d="M1151 6351 c-45 -48 -221 -406 -221 -449 0 -18 29 30 83 140 36 73
95 178 131 232 36 55 66 101 66 103 0 2 -7 3 -16 3 -9 0 -28 -13 -43 -29z"/>
<path d="M2788 5632 c-21 -2 -38 -7 -38 -11 0 -5 17 -11 38 -14 73 -12 142
-94 178 -212 16 -51 19 -97 19 -310 0 -816 -45 -1577 -122 -2018 -14 -82 -22
-155 -17 -165 5 -12 9 -5 15 28 4 25 23 138 43 252 41 240 51 318 71 586 18
234 40 998 40 1372 l0 265 -27 57 c-29 62 -91 135 -135 158 -15 9 -45 14 -65
12z"/>
<path d="M2708 5375 c-20 -77 -47 -180 -59 -230 -12 -49 -44 -166 -71 -260
-76 -259 -78 -267 -78 -313 0 -54 15 -47 23 10 3 24 31 131 62 238 81 280 166
629 163 664 -2 22 -14 -12 -40 -109z"/>
<path d="M3336 3978 c-7 -355 0 -495 27 -603 8 -27 18 -49 23 -47 11 3 11 26
-4 212 -7 80 -12 283 -12 452 0 292 -3 338 -20 338 -4 0 -10 -159 -14 -352z"/>
<path d="M4780 3887 c0 -18 176 -447 189 -460 27 -27 6 41 -65 219 -42 103
-82 201 -90 216 -16 32 -34 45 -34 25z"/>
<path d="M2843 3718 c-20 -25 -43 -126 -68 -301 -14 -97 -43 -247 -65 -334
-37 -148 -45 -202 -19 -137 70 180 112 363 129 570 5 66 16 140 25 164 16 45
15 59 -2 38z"/>
<path d="M3780 3385 c0 -3 43 -51 96 -108 81 -86 242 -280 357 -431 16 -20 37
-36 48 -36 20 0 20 1 -2 38 -58 95 -296 382 -365 441 -16 14 -49 42 -73 63
-40 35 -61 46 -61 33z"/>
<path d="M3750 2203 c-29 -98 -88 -239 -146 -356 -25 -49 -50 -101 -55 -116
l-9 -26 20 25 c50 63 185 363 214 476 18 71 19 74 8 74 -5 0 -19 -35 -32 -77z"/>
<path d="M3480 1303 c-14 -21 -83 -98 -155 -172 l-130 -135 97 82 c105 90 181
169 204 215 23 44 12 51 -16 10z"/>
<path d="M3333 1218 c-15 -20 -25 -38 -20 -38 3 0 12 11 21 25 17 26 16 35 -1
13z"/>
<path d="M3776 1091 c-3 -4 -58 -34 -122 -66 -299 -147 -543 -215 -770 -215
-72 0 -115 -4 -120 -11 -14 -24 24 -30 146 -25 199 8 395 57 589 147 125 58
323 179 293 179 -6 0 -13 -4 -16 -9z"/>
<path d="M3145 965 c-16 -14 -25 -25 -19 -25 6 0 21 11 34 25 30 32 24 31 -15
0z"/>
</g>
</svg>
