<svg xmlns="http://www.w3.org/2000/svg" version="1.1" xmlns:xlink="http://www.w3.org/1999/xlink" xmlns:svgjs="http://svgjs.dev/svgjs" width="1500" height="1500" viewBox="0 0 1500 1500"><rect width="1500" height="1500" fill="#ffffff"></rect><g transform="matrix(0.6666666666666666,0,0,0.6666666666666666,249.39393939393938,625.4367369569036)"><svg viewBox="0 0 396 98" data-background-color="#ffffff" preserveAspectRatio="xMidYMid meet" height="371" width="1500" xmlns="http://www.w3.org/2000/svg" xmlns:xlink="http://www.w3.org/1999/xlink"><g id="tight-bounds" transform="matrix(1,0,0,1,0.2400000000000091,0.3552551680193119)"><svg viewBox="0 0 395.52 97.28948966396136" height="97.28948966396136" width="395.52"><g><svg viewBox="0 0 588.255841410556 144.69839857068462" height="97.28948966396136" width="395.52"><g transform="matrix(1,0,0,1,192.735841410556,21.478459735503087)"><svg viewBox="0 0 395.52 101.74147909967844" height="101.74147909967844" width="395.52"><g id="textblocktransform"><svg viewBox="0 0 395.52 101.74147909967844" height="101.74147909967844" width="395.52" id="textblock"><g><svg viewBox="0 0 395.52 101.74147909967844" height="101.74147909967844" width="395.52"><g transform="matrix(1,0,0,1,0,0)"><svg width="395.52" viewBox="4.38 -32.29 129.57 33.33" height="101.74147909967844" data-palette-color="#000000"><path d="M19.17 0L4.38 0 4.38-31.25 8.33-31.25 8.33-3.54 19.17-3.54 19.17 0ZM40.62 0L25.21 0 25.21-31.25 40.62-31.25 40.62-27.71 29.16-27.71 29.16-21.04 38.19-21.04 38.19-17.5 29.16-17.5 29.16-3.54 40.62-3.54 40.62 0ZM51.14 0L47.18 0 47.18-31.25 55.03-31.25Q57.98-31.25 60.1-30.07 62.22-28.89 63.38-26.96 64.54-25.03 64.54-22.74L64.54-22.74Q64.54-20.17 63.09-18.13 61.63-16.08 59.09-15.1L59.09-15.1 69.58 0 64.96 0 55.03-14.38 51.14-14.38 51.14 0ZM51.14-27.71L51.14-17.71 55.03-17.71Q57.04-17.71 58.31-18.45 59.58-19.2 60.19-20.36 60.79-21.53 60.79-22.74L60.79-22.74Q60.79-24.93 59.21-26.32 57.63-27.71 55.03-27.71L55.03-27.71 51.14-27.71ZM99.78-31.25L99.78 1.04 77.91-22.4 77.91 0 74.16 0 74.16-32.29 96.03-8.85 96.03-31.25 99.78-31.25ZM122.52 0.63L122.52 0.63Q119.12 0.63 116.17-0.64 113.22-1.91 110.98-4.15 108.74-6.39 107.49-9.32 106.24-12.26 106.24-15.63L106.24-15.63Q106.24-18.99 107.51-21.93 108.77-24.86 111.01-27.1 113.25-29.34 116.21-30.61 119.16-31.88 122.56-31.88L122.56-31.88Q125.89-31.88 128.81-30.64 131.73-29.41 133.95-27.26L133.95-27.26 132.8-22.47Q131.21-25.03 128.51-26.58 125.82-28.13 122.56-28.13L122.56-28.13Q119.12-28.13 116.36-26.44 113.6-24.76 111.97-21.93 110.34-19.1 110.34-15.63L110.34-15.63Q110.34-12.22 111.95-9.38 113.57-6.53 116.33-4.83 119.09-3.13 122.52-3.13L122.52-3.13Q124.47-3.13 126.22-3.59 127.98-4.06 129.43-4.93L129.43-4.93 129.43-13.13 120.82-13.13 120.82-16.67 133.25-16.67 133.25-2.92Q131.14-1.15 128.34-0.26 125.55 0.63 122.52 0.63Z" opacity="1" transform="matrix(1,0,0,1,0,0)" fill="#000000" class="wordmark-text-0" data-fill-palette-color="primary" id="text-0"></path></svg></g></svg></g></svg></g></svg></g><g><svg viewBox="0 0 144.69839857068462 144.69839857068462" height="144.69839857068462" width="144.69839857068462"><g><svg></svg></g><g id="icon-0"><svg viewBox="0 0 144.69839857068462 144.69839857068462" height="144.69839857068462" width="144.69839857068462"><g><path d="M0 72.349c0-39.957 32.392-72.349 72.349-72.349 39.957 0 72.349 32.392 72.349 72.349 0 39.957-32.392 72.349-72.349 72.349-39.957 0-72.349-32.392-72.349-72.349zM72.349 135.523c34.89 0 63.174-28.284 63.174-63.174 0-34.89-28.284-63.174-63.174-63.174-34.89 0-63.174 28.284-63.174 63.174 0 34.89 28.284 63.174 63.174 63.174z" data-fill-palette-color="tertiary" fill="#000000" stroke="transparent"></path></g><g transform="matrix(1,0,0,1,49.69087099980853,33.295671605796414)"><svg viewBox="0 0 45.316656571067554 78.10705535909179" height="78.10705535909179" width="45.316656571067554"><g><svg xmlns="http://www.w3.org/2000/svg" xmlns:xlink="http://www.w3.org/1999/xlink" version="1.1" x="0" y="0" viewBox="21.679106830508616 1 56.85827385947762 98" enable-background="new 0 0 100 100" xml:space="preserve" height="78.10705535909179" width="45.316656571067554" class="icon-dxe-0" data-fill-palette-color="accent" id="dxe-0"><g fill="#261f20" data-fill-palette-color="accent"><path fill-rule="evenodd" clip-rule="evenodd" d="M30.545 28.822C29.38 36.039 30.875 43.672 37.045 47.863 30.758 19.81 45.756 8.664 59.646 1 43.466 24.046 76.542 24.644 78.423 51.13 80.028 73.71 64.507 91.317 46.639 99 46.845 76.175 24.089 73.067 21.801 54.397 20.905 47.094 25.062 33.766 30.545 28.822" fill="#000000" data-fill-palette-color="accent"></path></g></svg></g></svg></g></svg></g></svg></g></svg></g><defs></defs></svg><rect width="395.52" height="97.28948966396136" fill="none" stroke="none" visibility="hidden"></rect></g></svg></g></svg>